<?xml version="1.0" encoding="UTF-8"?>
<svg version="1.1" xmlns="http://www.w3.org/2000/svg" width="1080" height="1080">
<path d="M0 0 C356.4 0 712.8 0 1080 0 C1080 356.4 1080 712.8 1080 1080 C723.6 1080 367.2 1080 0 1080 C0 723.6 0 367.2 0 0 Z " fill="#FEFEFE" transform="translate(0,0)"/>
<path d="M0 0 C12.87 0 25.74 0 39 0 C42.36804488 13.18348996 45.44617913 26.38482917 48.2890625 39.68994141 C49.48700535 45.26745142 50.7098412 50.83952069 51.93112183 56.41195679 C52.52444975 59.11948202 53.11701605 61.8271737 53.70957947 64.53486633 C54.01086505 65.91157276 54.31218565 67.28827153 54.61354065 68.66496277 C55.72102467 73.7243838 56.82749306 78.78402638 57.93359375 83.84375 C58.40723905 86.01010304 58.88089512 88.17645372 59.35455322 90.34280396 C59.65566775 91.72013304 59.9567352 93.09747243 60.25775146 94.474823 C61.82648363 101.65259605 63.40038472 108.82904174 65 116 C75.08457995 86.94693504 84.71685841 57.7494925 94.28052998 28.52179146 C95.32080292 25.34313705 96.36208977 22.16481519 97.40343285 18.98651123 C98.13196985 16.76102794 98.85867545 14.53495228 99.58528137 12.30883789 C100.02527946 10.96506148 100.46535371 9.62131001 100.90551758 8.27758789 C101.28742752 7.10885635 101.66933746 5.94012482 102.06282043 4.73597717 C103 2 103 2 104 0 C115.88 0 127.76 0 140 0 C141.19625 5.56875 142.3925 11.1375 143.625 16.875 C146.94594417 32.28333466 150.38652397 47.65729734 154 63 C154.32572998 62.39341553 154.65145996 61.78683105 154.98706055 61.16186523 C162.66170913 46.88752758 170.49370137 32.71504275 178.50732422 18.62841797 C180.78760548 14.61312388 183.05094606 10.58836274 185.3125 6.5625 C186.529375 4.396875 187.74625 2.23125 189 0 C200.88 0 212.76 0 225 0 C225.02760994 11.16668716 225.05107877 22.3332956 225.0625 33.5 C225.06335602 34.33097954 225.06421204 35.16195908 225.06509399 36.01811981 C225.09358396 67.35717544 224.71035461 98.6682876 224 130 C212.12 130 200.24 130 188 130 C187.88705214 107.97516729 188.31184321 86.0118662 189 64 C188.16082031 65.53140625 188.16082031 65.53140625 187.3046875 67.09375 C181.83612612 77.02791534 176.26503296 86.899111 170.45214844 96.63671875 C167.28325039 101.96414156 164.30542416 107.31073086 161.5546875 112.8671875 C153.42054288 128.85067748 153.42054288 128.85067748 148.828125 131.03125 C143.99215924 132.03179464 139.70296021 131.31927195 135 130 C129.12516667 108.12562059 124.06755432 86.0731224 119 64 C115.75689876 73.52869951 112.61962378 83.0661861 109.82763672 92.73754883 C108.09305401 98.73764707 106.22195511 104.68748896 104.30859375 110.6328125 C102.38723383 117.04499278 100.72475614 123.53216449 99 130 C75.57 130 52.14 130 28 130 C24 112 24 112 24 108 C0.04745314 105.2255319 0.04745314 105.2255319 -22.21435547 111.10839844 C-27.39961585 117.01283046 -28.51481679 122.16932839 -31 130 C-43.87 130 -56.74 130 -70 130 C-68.53649358 126.34123395 -67.0616624 123.10480539 -65.19921875 119.66796875 C-64.64089355 118.63446289 -64.08256836 117.60095703 -63.50732422 116.53613281 C-62.90678223 115.43108398 -62.30624023 114.32603516 -61.6875 113.1875 C-60.73652689 111.43000539 -59.78555395 109.67251068 -58.83459473 107.91500854 C-57.85900573 106.1131973 -56.88210334 104.3121043 -55.90478516 102.51123047 C-54.13555259 99.24987406 -52.36974442 95.98669615 -50.60546875 92.72265625 C-44.93289623 82.23193233 -39.23505698 71.75519502 -33.51904297 61.28808594 C-29.83174928 54.53308976 -26.1626829 47.76836793 -22.5 41 C-18.15561698 32.97382581 -13.80396207 24.95168719 -9.4375 16.9375 C-8.94894531 16.03966797 -8.46039063 15.14183594 -7.95703125 14.21679688 C-7.49554688 13.37052734 -7.0340625 12.52425781 -6.55859375 11.65234375 C-6.15954834 10.92007568 -5.76050293 10.18780762 -5.34936523 9.43334961 C-3.59632052 6.27203305 -1.79346425 3.13856243 0 0 Z " fill="#FDFEFE" transform="translate(338,541)"/>
<path d="M0 0 C12.21 0 24.42 0 37 0 C36.3923957 6.07604301 35.76146899 12.04091437 34.80859375 18.0546875 C34.5839824 19.50781219 34.35937308 20.9609372 34.13476562 22.4140625 C33.78439876 24.65897831 33.43299857 26.90373014 33.08129883 29.1484375 C32.73793291 31.34597935 32.39814507 33.54405355 32.05859375 35.7421875 C31.85548584 37.0401123 31.65237793 38.33803711 31.44311523 39.67529297 C30.91192582 43.10180557 30.91192582 43.10180557 31 47 C31.42120117 46.51241211 31.84240234 46.02482422 32.27636719 45.52246094 C36.49805285 40.66274887 40.82796929 35.92740458 45.25 31.25 C50.58719305 25.58034553 55.89056269 19.88352188 61.14453125 14.13671875 C61.58442383 13.68643311 62.02431641 13.23614746 62.47753906 12.7722168 C64.14994572 10.91826769 64.14994572 10.91826769 65.71777344 8.22192383 C68.71764928 3.94802918 71.23911852 0.65848861 76.40896606 -0.57455444 C83.47059983 -1.38526065 90.54193073 -1.00085782 97.625 -0.6875 C99.79544885 -0.63225869 101.9660328 -0.58207989 104.13671875 -0.53710938 C109.42745089 -0.41653839 114.71309198 -0.23307213 120 0 C114.31978209 6.94103433 107.94998244 13.17673906 101.6015625 19.49609375 C100.39922532 20.69656287 99.19711095 21.89725518 97.99520874 23.09815979 C94.85090837 26.23866548 91.70361521 29.37615481 88.55566406 32.51300049 C85.33605827 35.72232618 82.11932679 38.93453005 78.90234375 42.14648438 C72.60435365 48.43379102 66.30319435 54.71791106 60 61 C61.6289405 65.27543127 63.76533649 68.87316189 66.34375 72.6328125 C67.24916002 73.97136723 68.15408514 75.31025005 69.05859375 76.64941406 C69.77668213 77.70884216 69.77668213 77.70884216 70.50927734 78.78967285 C73.08572213 82.60982399 75.61764814 86.45933608 78.15625 90.3046875 C79.73619171 92.68948784 81.31723951 95.073552 82.8984375 97.45751953 C83.98205556 99.09318814 85.06404186 100.72993875 86.14453125 102.36767578 C87.72749709 104.76620904 89.31625713 107.16080866 90.90625 109.5546875 C91.38952759 110.28992645 91.87280518 111.02516541 92.37072754 111.78268433 C94.63508278 115.46447079 94.63508278 115.46447079 98 118 C98.25797363 117.31349365 98.51594727 116.6269873 98.78173828 115.91967773 C100.16650248 112.6009613 101.79730974 109.45190987 103.4921875 106.28515625 C103.83406097 105.64174789 104.17593445 104.99833954 104.52816772 104.33543396 C105.64108064 102.24300641 106.75787831 100.15268315 107.875 98.0625 C108.65080312 96.60681718 109.42651858 95.15108764 110.20214844 93.6953125 C115.91426508 82.98531742 121.70357048 72.31885427 127.53759766 61.67480469 C130.18502462 56.83253259 132.81072287 51.97849575 135.4375 47.125 C135.97286377 46.13604736 136.50822754 45.14709473 137.05981445 44.12817383 C138.1493564 42.11529126 139.2387924 40.10235134 140.328125 38.08935547 C143.19695666 32.78821706 146.06715048 27.48781665 148.9375 22.1875 C149.71661743 20.74818115 149.71661743 20.74818115 150.51147461 19.27978516 C153.99528522 12.84632205 157.49659789 6.42290386 161 0 C173.87 0 186.74 0 200 0 C201.53786763 3.84466908 202.50656329 6.92840238 203.296875 10.91796875 C203.53027588 12.0766748 203.76367676 13.23538086 204.00415039 14.42919922 C204.25028076 15.66943848 204.49641113 16.90967773 204.75 18.1875 C205.28275565 20.81953331 205.81705314 23.45115915 206.35546875 26.08203125 C206.49162094 26.74755005 206.62777313 27.41306885 206.76805115 28.09875488 C208.09677684 34.54856892 209.56143172 40.96346785 211.0625 47.375 C213.57569279 58.12376953 215.95825871 68.89469542 218.28320312 79.68554688 C219.58471995 85.70373229 220.90226025 91.71841925 222.21878052 97.7333374 C222.67597329 99.82233243 223.13281749 101.91140343 223.58959961 104.00048828 C223.73333511 104.6571347 223.87707062 105.31378113 224.02516174 105.99032593 C224.43771603 107.87708152 224.84852183 109.76421917 225.25927734 111.65136719 C225.70832266 113.68139537 226.16894198 115.70897333 226.65087891 117.73144531 C226.83440918 118.50327148 227.01793945 119.27509766 227.20703125 120.0703125 C227.36276611 120.69953613 227.51850098 121.32875977 227.67895508 121.97705078 C228.09846253 124.62042626 228 127.3235433 228 130 C215.46 130 202.92 130 190 130 C188.0231953 123.08118356 186.50770379 116.03595104 185 109 C170.81 108.67 156.62 108.34 142 108 C141.34 109.65 140.68 111.3 140 113 C139.31643353 114.33141825 138.6071205 115.64997409 137.87109375 116.953125 C137.47599609 117.654375 137.08089844 118.355625 136.67382812 119.078125 C136.26583984 119.79484375 135.85785156 120.5115625 135.4375 121.25 C135.02564453 121.9821875 134.61378906 122.714375 134.18945312 123.46875 C131.13862607 128.86137393 131.13862607 128.86137393 130 130 C127.77959029 130.16820379 125.55378819 130.26544286 123.328125 130.33569336 C122.63042496 130.35832748 121.93272491 130.38096161 121.21388245 130.40428162 C114.7540607 130.60192148 108.29225036 130.71701609 101.8301239 130.80750179 C97.48892161 130.86924469 93.15199807 130.95761484 88.81298828 131.11108398 C84.61625718 131.25888814 80.4234114 131.33688446 76.22424316 131.36721992 C74.62904923 131.3904518 73.03400635 131.43793178 71.44030762 131.51078606 C59.32816313 132.03900681 59.32816313 132.03900681 55.47627831 128.66552353 C52.71314317 125.35683013 50.75646791 121.70668007 48.90890312 117.83022499 C47.42795234 114.84808854 45.62314823 112.10224677 43.83203125 109.296875 C42.49073168 107.11547782 41.15087916 104.93319019 39.8125 102.75 C39.14025391 101.656875 38.46800781 100.56375 37.77539062 99.4375 C34.17158414 93.57034864 30.60764713 87.68545305 27.13549805 81.73925781 C26.57342651 80.8783252 26.57342651 80.8783252 26 80 C25.67 80 25.34 80 25 80 C24.79318604 81.30146973 24.58637207 82.60293945 24.37329102 83.94384766 C23.60382393 88.78568062 22.83406055 93.62746644 22.06420898 98.46923828 C21.73144618 100.56232444 21.39876305 102.65542327 21.06616211 104.74853516 C20.58728798 107.76207788 20.1081246 110.7755745 19.62890625 113.7890625 C19.48095108 114.72054108 19.33299591 115.65201965 19.18055725 116.61172485 C19.04048752 117.49218475 18.90041779 118.37264465 18.75610352 119.27978516 C18.63396988 120.04811676 18.51183624 120.81644836 18.38600159 121.60806274 C17.9343105 124.40705835 17.46610523 127.2033686 17 130 C4.79 130 -7.42 130 -20 130 C-17.82432285 113.44224924 -15.27454579 96.9714236 -12.57570648 80.49167633 C-11.57256065 74.35749752 -10.57895569 68.22176259 -9.5859375 62.0859375 C-9.47595051 61.40664059 -9.36596352 60.72734367 -9.25264359 60.02746201 C-6.01928274 40.04116686 -2.99650026 20.02297194 0 0 Z " fill="#FDFEFE" transform="translate(588,541)"/>
<path d="M0 0 C28.73820063 -3.9197595 28.73820063 -3.9197595 36.97119141 2.21337891 C42.07453161 8.26675917 45.2725634 15.36170942 48.42773438 22.55908203 C50.7050615 27.54303367 53.58666766 32.0364932 56.5625 36.625 C57.60637934 38.30250543 58.64671069 39.9822236 59.68359375 41.6640625 C64.12562451 48.8195387 68.59338947 55.95898241 73.06469727 63.09619141 C73.66467529 64.05444824 74.26465332 65.01270508 74.8828125 66 C75.67776123 67.2684375 75.67776123 67.2684375 76.48876953 68.5625 C78.01703862 71.027482 79.51020447 73.51162711 81 76 C81.10831146 75.29335709 81.21662292 74.58671417 81.32821655 73.85865784 C82.35472036 67.1651502 83.38413602 60.47209603 84.41673851 53.77952671 C84.9473746 50.3396678 85.47692466 46.89964934 86.00390625 43.45922852 C86.61125801 39.4944376 87.2234884 35.53041299 87.8359375 31.56640625 C88.02247894 30.34417862 88.20902039 29.12195099 88.4012146 27.86268616 C89.16429339 22.94382229 89.93871708 18.06290499 91.07275391 13.21459961 C92.02923739 8.86710768 92.50841785 4.42423934 93 0 C103.89 0 114.78 0 126 0 C126 8.99457406 126 8.99457406 125.23046875 13.14453125 C125.06538818 14.05879883 124.90030762 14.97306641 124.73022461 15.91503906 C124.55112549 16.87120117 124.37202637 17.82736328 124.1875 18.8125 C123.81650666 20.86566864 123.44673202 22.91905784 123.078125 24.97265625 C122.80258789 26.49850342 122.80258789 26.49850342 122.52148438 28.05517578 C121.77355808 32.27871835 121.09636309 36.51177505 120.4375 40.75 C120.31785889 41.51739502 120.19821777 42.28479004 120.07495117 43.07543945 C119.83574028 44.61336279 119.59704832 46.15136694 119.35888672 47.68945312 C118.74719933 51.62755476 118.12286512 55.56365372 117.5 59.5 C117.24994152 61.0833241 116.99994147 62.66665743 116.75 64.25 C113.5 84.83333333 110.25 105.41666667 107 126 C78.06283856 129.13381455 78.06283856 129.13381455 70.45361328 124.42382812 C66.40881558 119.99274745 64.40224186 114.52091121 62.27001953 108.98535156 C60.04197949 103.74804406 56.85210716 99.12826043 53.75 94.375 C52.4853256 92.3685628 51.2249764 90.35939351 49.96875 88.34765625 C49.32679688 87.3230127 48.68484375 86.29836914 48.0234375 85.24267578 C44.40749001 79.4479105 40.82770023 73.6309315 37.25 67.8125 C36.5703418 66.7076123 35.89068359 65.60272461 35.19042969 64.46435547 C31.69287261 58.77261812 31.69287261 58.77261812 30 56 C29.15646973 54.65941528 29.15646973 54.65941528 28.29589844 53.29174805 C27 51 27 51 27 49 C26.34 49 25.68 49 25 49 C25.04125 50.134375 25.0825 51.26875 25.125 52.4375 C25.125 56.25997416 24.49910243 59.6059432 23.58862305 63.30297852 C22.94084805 66.27102929 22.4984138 69.22501414 22.08203125 72.234375 C21.90897461 73.4713916 21.73591797 74.7084082 21.55761719 75.98291016 C21.46677856 76.63785461 21.37593994 77.29279907 21.28234863 77.96759033 C20.49684986 83.62178916 19.69106465 89.27309153 18.87768555 94.92333984 C18.66709524 96.39437267 18.4587714 97.8657317 18.25268555 99.33740234 C17.9465662 101.52010335 17.63220836 103.70149385 17.31640625 105.8828125 C17.13537354 107.15527832 16.95434082 108.42774414 16.76782227 109.73876953 C15.78114407 115.2145982 14.34947121 120.60211515 13 126 C2.44 126 -8.12 126 -19 126 C-19 118.12698413 -19 118.12698413 -18.44921875 114.828125 C-18.32740234 114.07917969 -18.20558594 113.33023438 -18.08007812 112.55859375 C-17.95052734 111.79675781 -17.82097656 111.03492188 -17.6875 110.25 C-17.44107049 108.75526365 -17.19499823 107.26046837 -16.94921875 105.765625 C-16.80403809 104.8888208 -16.65885742 104.0120166 -16.50927734 103.10864258 C-14.5708626 91.27650693 -12.75340221 79.42524187 -10.94338036 67.57291794 C-10.62306784 65.47563021 -10.30245771 63.37838818 -9.98176575 61.28115845 C-9.76388101 59.85605944 -9.54600079 58.43095975 -9.328125 57.00585938 C-9.21913218 56.29298452 -9.11013937 55.58010967 -8.99784374 54.84563255 C-8.44197548 51.20871943 -7.88708176 47.57166178 -7.33398438 43.93432617 C-6.78824018 40.34586372 -6.23977742 36.75782529 -5.68963623 33.17003441 C-5.3870729 31.19220087 -5.08727764 29.21394447 -4.78759766 27.235672 C-3.38677046 18.1164693 -1.74753294 9.05773845 0 0 Z " fill="#0263B9" transform="translate(320,391)"/>
<path d="M0 0 C10.23 0 20.46 0 31 0 C31.58007812 2.64644531 32.16015625 5.29289063 32.7578125 8.01953125 C37.14310389 28.01947615 41.53996025 48.01656638 46 68 C50.2584074 63.24120421 52.97270366 57.73012309 55.9375 52.125 C60.44809503 43.69494205 65.02914565 35.31426747 69.75 27 C70.5546167 25.58279663 70.5546167 25.58279663 71.37548828 24.13696289 C72.41897579 22.30052105 73.46290684 20.46433114 74.50732422 18.62841797 C76.78760548 14.61312388 79.05094606 10.58836274 81.3125 6.5625 C83.1378125 3.3140625 83.1378125 3.3140625 85 0 C94.9 0 104.8 0 115 0 C115 40.26 115 80.52 115 122 C105.43 122 95.86 122 86 122 C85.89518255 105.48470031 86.28128998 89.06027148 87 72.5625 C87.09679247 70.25848191 87.19314857 67.95444545 87.2890625 65.65039062 C87.52103952 60.10003967 87.75829508 54.54993542 88 49 C86.68 49 85.36 49 84 49 C83.79632812 49.77085937 83.59265625 50.54171875 83.3828125 51.3359375 C81.45142523 56.45356818 78.67496986 60.93820222 75.875 65.625 C74.60680809 67.7713886 73.33993547 69.91855711 72.07421875 72.06640625 C71.4095459 73.19320801 70.74487305 74.32000977 70.06005859 75.48095703 C67.24582517 80.27280515 64.49901637 85.10283289 61.75317383 89.93408203 C60.38460898 92.34202896 59.00813959 94.74514289 57.6237793 97.14404297 C54.77615813 102.08421826 51.95331218 107.01783277 49.375 112.10546875 C47.51598655 115.68475134 45.75534227 119.01174211 43 122 C39.0573794 123.17143308 35.96202284 122.99976277 32 122 C31.65388672 120.59814453 31.65388672 120.59814453 31.30078125 119.16796875 C30.97167379 117.84106652 30.64221512 116.51425137 30.3125 115.1875 C30.04240112 114.09997437 30.04240112 114.09997437 29.7668457 112.99047852 C28.83225593 109.2501233 27.87850663 105.51727182 26.8671875 101.796875 C24.07478681 91.50421483 21.60497692 81.15017574 19.25 70.75 C19.09534271 70.07065399 18.94068542 69.39130798 18.78134155 68.69137573 C18.3352023 66.72731147 17.8940924 64.7621069 17.453125 62.796875 C17.06882324 61.08516113 17.06882324 61.08516113 16.67675781 59.33886719 C15.98058294 55.90420355 15.46214259 52.47323874 15 49 C14.01 49.33 13.02 49.66 12 50 C10.94336072 52.17366121 10.94336072 52.17366121 10.1953125 54.9296875 C9.86523193 56.01548096 9.53515137 57.10127441 9.19506836 58.2199707 C8.8419458 59.42613037 8.48882324 60.63229004 8.125 61.875 C7.54510595 63.79948218 6.96519824 65.72396026 6.38493347 67.64833069 C5.73586147 69.80872036 5.09279714 71.97083325 4.45068359 74.13330078 C2.8268965 79.59361502 1.17356698 85.04487974 -0.48046875 90.49609375 C-3.66444816 100.99415839 -6.8346987 111.49628766 -10 122 C-19.57 122 -29.14 122 -39 122 C-37.62250884 115.80128976 -36.13210633 109.95687405 -34.13012695 103.97387695 C-33.70764427 102.69355087 -33.70764427 102.69355087 -33.27662659 101.38735962 C-32.35125103 98.5863006 -31.41975691 95.78731698 -30.48828125 92.98828125 C-29.83488313 91.01374422 -29.18191133 89.03906607 -28.52934265 87.06425476 C-26.81128628 81.86831974 -25.08821007 76.67406409 -23.36383057 71.48022461 C-20.62135668 63.21697965 -17.88675624 54.95112552 -15.15172386 46.68541527 C-14.20785763 43.83514493 -13.26200135 40.98554192 -12.31575012 38.13606262 C-8.11004545 25.45495569 -4.03150356 12.73766759 0 0 Z " fill="#FDFDFE" transform="translate(444,545)"/>
<path d="M0 0 C7.72879671 -0.09335842 15.45745725 -0.16409439 23.18667889 -0.20724869 C26.77708271 -0.22797799 30.36709615 -0.25602042 33.95727539 -0.30175781 C37.43271947 -0.3457481 40.90779206 -0.36924676 44.38349342 -0.37950897 C46.3313639 -0.39031783 48.27908834 -0.42145527 50.22673035 -0.45318604 C62.16696255 -0.45614226 73.80774624 1.91971242 83 10 C90.74941343 18.35066102 91.55742212 26.51514735 91.30859375 37.44921875 C90.70959349 49.46650615 84.87735467 60.79804677 76.0625 68.9375 C70.83015924 73.16596143 65.6296676 75.83207928 59 77 C64.09628491 86.22025231 69.53727964 95.21971604 75.0625 104.1875 C75.73474609 105.2791748 76.40699219 106.37084961 77.09960938 107.49560547 C80.90907792 113.66318345 84.77433948 119.78539971 88.74780273 125.84887695 C90 128 90 128 90 130 C75.15 130 60.3 130 45 130 C39.93042862 119.86085724 34.89885813 109.7202285 30 99.5 C29.41027284 98.27207941 28.82042926 97.04421474 28.23046875 95.81640625 C26.81917847 92.87814615 25.4090278 89.93934554 24 87 C23.39308515 90.43702044 22.78957481 93.87462846 22.1875 97.3125 C21.91619263 98.8605835 21.91619263 98.8605835 21.6394043 100.43994141 C20.31482596 108.05319934 19.07871875 115.67643663 17.9519043 123.3215332 C17.10709216 128.89290784 17.10709216 128.89290784 16 130 C13.3337397 130.08855161 10.69352886 130.11524673 8.02734375 130.09765625 C7.22970108 130.0962413 6.43205841 130.09482635 5.61024475 130.09336853 C3.05262565 130.08775316 0.49509282 130.07519812 -2.0625 130.0625 C-3.79231645 130.05748698 -5.52213426 130.05292373 -7.25195312 130.04882812 C-11.50133553 130.03777875 -15.75065312 130.02050386 -20 130 C-19.46492095 121.51191989 -18.53430814 113.20684089 -17.109375 104.82421875 C-16.92451538 103.70819275 -16.73965576 102.59216675 -16.54919434 101.44232178 C-15.95437555 97.85654406 -15.3521403 94.27205472 -14.75 90.6875 C-14.12967241 86.95650918 -13.51144236 83.22517516 -12.89349365 79.49378967 C-12.48704723 77.03954167 -12.08002898 74.5853883 -11.67242432 72.1313324 C-9.96905264 61.86289618 -8.34881555 51.58351467 -6.76690674 41.29576111 C-5.36315029 32.21824708 -3.87834036 23.15638836 -2.359375 14.09765625 C-2.12867078 12.71815181 -1.89803898 11.33863525 -1.66748047 9.95910645 C-1.11236046 6.63928534 -0.55652442 3.31958591 0 0 Z " fill="#FDFDFE" transform="translate(839,541)"/>
<path d="M0 0 C10.89 0 21.78 0 33 0 C32.35051121 6.49488789 31.62938202 12.86203046 30.58984375 19.2890625 C30.41443054 20.39447388 30.41443054 20.39447388 30.23547363 21.5222168 C29.80594803 24.22364442 29.37144993 26.92427955 28.9375 29.625 C27.968125 35.68875 26.99875 41.7525 26 48 C41.51 48 57.02 48 73 48 C73.495 43.05 73.495 43.05 74 38 C74.44585567 34.89687077 74.90978048 31.80487802 75.41015625 28.7109375 C75.54191757 27.88163727 75.67367889 27.05233704 75.80943298 26.19790649 C76.22443413 23.58983379 76.64339072 20.98241534 77.0625 18.375 C77.34726899 16.58988581 77.63177644 14.80472988 77.91601562 13.01953125 C78.60717759 8.67911472 79.3037037 4.33960815 80 0 C90.89 0 101.78 0 113 0 C112.35850097 6.41499033 111.67212405 12.76958892 110.765625 19.14453125 C110.64744415 19.98395767 110.52926331 20.82338409 110.40750122 21.68824768 C110.02459989 24.39675782 109.63775302 27.10468043 109.25 29.8125 C109.11716614 30.74451233 108.98433228 31.67652466 108.84747314 32.63677979 C107.02270276 45.40689301 105.02617757 58.12460832 102.75927734 70.82446289 C101.08376904 80.27717879 99.7062947 89.75785472 98.38720703 99.26611328 C97.13687856 108.22486514 95.64706913 117.10582669 94 126 C83.11 126 72.22 126 61 126 C61 118.18820225 61 118.18820225 61.90625 114.70703125 C63.10191108 109.73598611 63.81723722 104.7510917 64.5 99.6875 C64.75682738 97.83970656 65.01463488 95.99204907 65.2734375 94.14453125 C65.39686523 93.2623291 65.52029297 92.38012695 65.64746094 91.47119141 C67.49637306 78.51088083 67.49637306 78.51088083 69 74 C53.16 74 37.32 74 21 74 C20.67 77.63 20.34 81.26 20 85 C19.55073413 88.1140543 19.08104024 91.21080629 18.5625 94.3125 C18.29331604 95.96078186 18.02509468 97.60922119 17.7578125 99.2578125 C17.62793945 100.05864258 17.49806641 100.85947266 17.36425781 101.68457031 C16.67686719 106.05401579 16.10081964 110.43849359 15.52734375 114.82421875 C14.90170439 118.591958 13.92632365 122.29470539 13 126 C2.44 126 -8.12 126 -19 126 C-19 118.12698413 -19 118.12698413 -18.44921875 114.828125 C-18.32933594 114.09142578 -18.20945312 113.35472656 -18.0859375 112.59570312 C-17.95445312 111.82162109 -17.82296875 111.04753906 -17.6875 110.25 C-17.41001074 108.55731551 -17.13267118 106.86460648 -16.85546875 105.171875 C-16.71286621 104.31271484 -16.57026367 103.45355469 -16.42333984 102.56835938 C-15.89726551 99.37672037 -15.39189217 96.18207028 -14.89045715 92.98648071 C-14.52327068 90.64819061 -14.15468446 88.31012761 -13.78540039 85.97216797 C-13.65427353 85.14193115 -13.52314667 84.31169434 -13.38804626 83.45629883 C-13.04535661 81.28710337 -12.70262241 79.11791495 -12.35986328 76.94873047 C-11.023654 68.49137563 -9.69019878 60.03359212 -8.35943604 51.57537842 C-7.56802706 46.54625091 -6.77575782 41.51725909 -5.98339844 36.48828125 C-5.57386104 33.88775162 -5.16468816 31.28716456 -4.75585938 28.68652344 C-4.15851406 24.8872176 -3.55985586 21.08812064 -2.9609375 17.2890625 C-2.77864594 16.12766754 -2.59635437 14.96627258 -2.40853882 13.76968384 C-2.23811066 12.69020477 -2.0676825 11.61072571 -1.89208984 10.49853516 C-1.74347504 9.55434723 -1.59486023 8.6101593 -1.44174194 7.63735962 C-1.0137685 5.08220295 -0.50808793 2.54043963 0 0 Z " fill="#0263B9" transform="translate(813,391)"/>
<path d="M0 0 C12.21 0 24.42 0 37 0 C38.7634375 8.1675 38.7634375 8.1675 40.5625 16.5 C44.06031017 32.68595911 47.58658819 48.86549343 51.13232422 65.04101562 C52.02776822 69.12613798 52.92224585 73.21147152 53.81640625 77.296875 C53.96680359 77.98403091 54.11720093 78.67118683 54.27215576 79.37916565 C55.01538376 82.77538381 55.7582458 86.17168155 56.50048828 89.56811523 C56.64242615 90.21760635 56.78436401 90.86709747 56.93060303 91.53627014 C57.07080872 92.17785568 57.2110144 92.81944122 57.35546875 93.48046875 C58.41702927 98.33802541 59.48227527 103.19474795 60.55078125 108.05078125 C61.01306078 110.15884541 61.47530285 112.26691778 61.9375 114.375 C62.14906738 115.33220947 62.36063477 116.28941895 62.57861328 117.27563477 C62.76794434 118.14115967 62.95727539 119.00668457 63.15234375 119.8984375 C63.31726318 120.64786621 63.48218262 121.39729492 63.65209961 122.16943359 C64 124 64 124 64 126 C52.45 126 40.9 126 29 126 C25 110 25 110 25 104 C18.65066552 103.63316527 12.31003298 103.42748683 5.95092773 103.32861328 C3.79382498 103.27665046 1.63725555 103.18902581 -0.5168457 103.06396484 C-10.99417711 102.38722933 -10.99417711 102.38722933 -21 105 C-26.09346882 109.96076667 -28.81233276 116.50194858 -31.25260925 123.07830811 C-32 125 -32 125 -33 126 C-35.59359322 126.08851529 -38.16039691 126.11525945 -40.75390625 126.09765625 C-41.52935287 126.0962413 -42.3047995 126.09482635 -43.10374451 126.09336853 C-45.59003494 126.08775345 -48.0762366 126.07519846 -50.5625 126.0625 C-52.24413933 126.05748694 -53.92578006 126.0529237 -55.60742188 126.04882812 C-59.73831566 126.03777913 -63.86914276 126.02050445 -68 126 C-62.18666327 114.12883594 -55.97375461 102.51591415 -49.60742188 90.93261719 C-46.9074283 86.00668724 -44.23525181 81.0657485 -41.5625 76.125 C-40.47005322 74.10677022 -39.3776053 72.08854105 -38.28515625 70.0703125 C-37.74262207 69.06774414 -37.20008789 68.06517578 -36.64111328 67.03222656 C-33.39065763 61.02647542 -30.13771704 55.02206919 -26.8840332 49.01806641 C-24.12186791 43.92041515 -21.36286883 38.82109104 -18.609375 33.71875 C-18.04669922 32.6771875 -17.48402344 31.635625 -16.90429688 30.5625 C-15.85239949 28.61518583 -14.80150417 26.66732978 -13.75195312 24.71875 C-9.26624217 16.41930056 -4.62769061 8.22700552 0 0 Z " fill="#0162B9" transform="translate(230,391)"/>
<path d="M0 0 C10.89 0 21.78 0 33 0 C32.71125 2.949375 32.4225 5.89875 32.125 8.9375 C31.99569092 10.30249634 31.99569092 10.30249634 31.86376953 11.69506836 C31.37143845 16.53354829 30.58803984 21.1797768 29.47265625 25.91235352 C28.7916689 28.92016489 28.35811579 31.94611729 27.9375 35 C27.77378906 36.18851562 27.61007812 37.37703125 27.44140625 38.6015625 C26.90517499 42.73006864 26.42838175 46.85897642 26 51 C26.51433594 50.39478516 26.51433594 50.39478516 27.0390625 49.77734375 C31.75062228 44.31147021 36.6633056 39.04535968 41.59545898 33.77978516 C47.6064852 27.36092183 53.54644238 20.87974244 59.47460938 14.38427734 C60.96150924 12.75551608 62.44949282 11.1277496 63.9375 9.5 C64.81277344 8.5409375 65.68804688 7.581875 66.58984375 6.59375 C67.38519531 5.7378125 68.18054688 4.881875 69 4 C69.52118408 3.29456055 70.04236816 2.58912109 70.5793457 1.86230469 C74.25279872 -0.96382739 77.63253768 -0.49956734 82.140625 -0.390625 C83.02280701 -0.38496521 83.90498901 -0.37930542 84.81390381 -0.37347412 C87.62649213 -0.35111591 90.43779795 -0.30092132 93.25 -0.25 C95.15883574 -0.22993425 97.06769149 -0.21168361 98.9765625 -0.1953125 C103.65153445 -0.151253 108.32554992 -0.08222984 113 0 C108.02597007 6.0881311 102.50405549 11.54601435 96.89006233 17.03227615 C94.01561944 19.84531415 91.15679977 22.67419024 88.29492188 25.5 C84.66609369 29.08080857 81.03281735 32.65679156 77.38452148 36.21777344 C74.42097236 39.11120243 71.47217855 42.01895514 68.53277397 44.93690109 C67.41254174 46.04353438 66.28691066 47.14472993 65.15587044 48.24031448 C63.58080204 49.76727542 62.02523907 51.31180197 60.47290039 52.86181641 C59.13770103 54.17250595 59.13770103 54.17250595 57.77552795 55.50967407 C55.74081767 57.83745833 55.74081767 57.83745833 56.05886841 60.55680847 C57.01717073 63.04457546 58.08310859 65.02857508 59.58520508 67.22924805 C60.12699905 68.03166428 60.66879303 68.83408051 61.227005 69.66081238 C62.1143055 70.94826103 62.1143055 70.94826103 63.01953125 72.26171875 C63.63334152 73.16638382 64.24715179 74.07104889 64.87956238 75.00312805 C66.8495956 77.90318621 68.83069895 80.79547416 70.8125 83.6875 C72.10428154 85.58346276 73.39530481 87.47994239 74.68554688 89.37695312 C76.59712379 92.18661401 78.50891031 94.9961278 80.42214966 97.80465698 C84.60956395 103.95171635 88.79539678 110.09970725 92.94921875 116.26953125 C93.46297562 117.02521896 93.97673248 117.78090668 94.50605774 118.55949402 C98 123.77002415 98 123.77002415 98 126 C92.12867095 126.22300529 86.25981949 126.3860246 80.38525391 126.49438477 C78.38872331 126.53956174 76.39248914 126.60092086 74.39697266 126.67895508 C57.95465054 127.30568036 57.95465054 127.30568036 53.59545898 124.39379883 C51.98513317 122.00581273 51.03506284 119.68588341 50 117 C48.800017 115.00188641 47.56430305 113.02495924 46.30078125 111.06640625 C44.96956592 108.89953509 43.64020112 106.73152619 42.3125 104.5625 C41.60951037 103.41674636 40.90638392 102.27107666 40.203125 101.12548828 C38.13292828 97.75184758 36.06613933 94.3761273 34 91 C33.4023584 90.02369629 32.8047168 89.04739258 32.18896484 88.04150391 C29.1220869 83.03003786 26.05901638 78.01626839 23 73 C21.51910289 77.10727774 20.59847361 80.96256006 20.0390625 85.2890625 C19.87438477 86.51399414 19.70970703 87.73892578 19.54003906 89.00097656 C19.41030701 89.97484314 19.41030701 89.97484314 19.2779541 90.96838379 C18.79297778 94.51316242 18.25035639 98.04910388 17.7109375 101.5859375 C17.51290527 102.89095215 17.31487305 104.1959668 17.11083984 105.54052734 C16.74659912 107.93359131 16.74659912 107.93359131 16.375 110.375 C15.59125 115.53125 14.8075 120.6875 14 126 C3.11 126 -7.78 126 -19 126 C-19 118.12698413 -19 118.12698413 -18.44921875 114.828125 C-18.32740234 114.07917969 -18.20558594 113.33023438 -18.08007812 112.55859375 C-17.95052734 111.79675781 -17.82097656 111.03492188 -17.6875 110.25 C-17.44107049 108.75526365 -17.19499823 107.26046837 -16.94921875 105.765625 C-16.80403809 104.8888208 -16.65885742 104.0120166 -16.50927734 103.10864258 C-14.5708626 91.27650693 -12.75340221 79.42524187 -10.94338036 67.57291794 C-10.62306784 65.47563021 -10.30245771 63.37838818 -9.98176575 61.28115845 C-9.76388101 59.85605944 -9.54600079 58.43095975 -9.328125 57.00585938 C-9.21913218 56.29298452 -9.11013937 55.58010967 -8.99784374 54.84563255 C-8.44197548 51.20871943 -7.88708176 47.57166178 -7.33398438 43.93432617 C-6.78824018 40.34586372 -6.23977742 36.75782529 -5.68963623 33.17003441 C-5.3870729 31.19220087 -5.08727764 29.21394447 -4.78759766 27.235672 C-3.38493425 18.10451583 -1.70493463 9.09298471 0 0 Z " fill="#0163B9" transform="translate(464,391)"/>
<path d="M0 0 C1.34888732 0.00015905 2.69778075 0.00584927 4.04663086 0.01586914 C5.10991859 0.01799156 5.10991859 0.01799156 6.19468689 0.02015686 C8.46699173 0.02577096 10.73919936 0.03832576 13.01147461 0.05102539 C14.54858257 0.05603858 16.08569206 0.0606018 17.62280273 0.06469727 C21.39823103 0.07574497 25.17358632 0.09301898 28.94897461 0.11352539 C29.19231729 7.09960459 28.53410004 13.46574387 27.13647461 20.30102539 C25.39820604 29.25534499 24.05986465 38.20285036 22.98876953 47.26074219 C22.37609015 52.32091897 21.54728259 57.22717909 20.38598633 62.19042969 C18.04374612 72.49759511 16.78175501 85.64028946 21.94897461 95.11352539 C26.71598 99.11953294 30.34220532 99.79575338 36.32397461 99.67602539 C37.07767334 99.66724365 37.83137207 99.65846191 38.60791016 99.64941406 C44.40935727 99.43613019 48.77995708 98.38808766 52.94897461 94.11352539 C61.58448309 84.40271413 62.91991988 70.93335714 64.6105957 58.53833008 C65.14620647 54.70017271 65.76993363 50.87685674 66.38647461 47.05102539 C67.26089483 41.5445729 68.11590241 36.03535618 68.95678711 30.52368164 C69.13153564 29.37971924 69.30628418 28.23575684 69.48632812 27.05712891 C69.82676271 24.82475802 70.16587487 22.59218491 70.50341797 20.359375 C70.66205322 19.31918213 70.82068848 18.27898926 70.98413086 17.20727539 C71.12214111 16.29655273 71.26015137 15.38583008 71.40234375 14.44750977 C72.18751461 9.6586338 73.08087643 4.88806535 73.94897461 0.11352539 C84.83897461 0.11352539 95.72897461 0.11352539 106.94897461 0.11352539 C104.04010385 25.46225631 104.04010385 25.46225631 101.69897461 38.01977539 C100.86449152 42.49642946 100.15248659 46.9897033 99.44897461 51.48852539 C99.25899902 52.67865234 99.25899902 52.67865234 99.06518555 53.89282227 C98.436659 57.85687973 97.84890236 61.81980915 97.33959961 65.80102539 C94.81664041 84.78555135 90.22783493 103.44549281 75.26147461 116.42602539 C57.80285509 129.43336329 36.068225 131.46189175 15.01928711 128.57446289 C12.21900702 127.92605198 9.62591842 127.15280946 6.94897461 126.11352539 C6.23354492 125.84668945 5.51811523 125.57985352 4.78100586 125.30493164 C-3.99714536 121.48465306 -10.22335704 115.02941332 -14.17602539 106.41040039 C-19.64812219 92.04614629 -15.37781526 73.79291181 -13.05102539 59.11352539 C-12.80824664 57.53418908 -12.56603288 55.95476579 -12.32446289 54.37524414 C-11.58932788 49.6176245 -10.82129252 44.86556241 -10.05102539 40.11352539 C-9.36173928 35.84297831 -8.67473345 31.57206805 -7.98852539 27.30102539 C-7.81675781 26.23585693 -7.64499023 25.17068848 -7.46801758 24.07324219 C-6.36416888 17.191335 -5.34313039 10.3069321 -4.44555664 3.39477539 C-3.84528956 -0.07607586 -3.64159346 0.1354998 0 0 Z " fill="#0263B9" transform="translate(590.051025390625,390.886474609375)"/>
<path d="M0 0 C9.57 0 19.14 0 29 0 C26.73409875 17.41166223 23.96012216 34.69602182 21 52 C27.20138702 48.35685939 31.58870491 43.67526166 36.265625 38.25390625 C39.87129267 34.11574594 43.60347833 30.11170184 47.375 26.125 C57.0751618 16.64258737 57.0751618 16.64258737 65.17407227 5.95898438 C66.92816856 3.29560742 68.31224128 1.75295345 71 0 C77.00699546 -1.00434583 82.87272038 -0.75563839 88.9375 -0.5 C90.59171094 -0.45983116 92.24601542 -0.42333632 93.90039062 -0.390625 C97.93591799 -0.30286528 101.96692521 -0.16506878 106 0 C104.42476254 3.85308766 101.82252556 6.44743914 98.90771484 9.31933594 C98.39048355 9.83685928 97.87325226 10.35438263 97.34034729 10.8875885 C95.63524329 12.59130289 93.92317232 14.28782978 92.2109375 15.984375 C91.025087 17.16649407 89.83967826 18.34905645 88.6546936 19.53204346 C85.53882362 22.64028728 82.41699366 25.74247737 79.29388428 28.84344482 C76.10636381 32.01048502 72.9245168 35.18321387 69.7421875 38.35546875 C63.50033024 44.57589403 57.25216515 50.78993537 51 57 C54.50766998 63.59298976 58.41922859 69.7990444 62.62109375 75.96875 C63.24347427 76.88910034 63.8658548 77.80945068 64.50709534 78.75769043 C66.48041698 81.6741684 68.45880944 84.58716264 70.4375 87.5 C71.76141649 89.45419084 73.08498724 91.40861595 74.40820312 93.36328125 C76.2798717 96.12809133 78.15198135 98.89258639 80.02696228 101.65515137 C81.1445608 103.30211976 82.25852322 104.95156293 83.36837769 106.60375977 C84.48588514 108.2449584 85.62751057 109.86991964 86.78909302 111.48022461 C87.34861664 112.26985596 87.90814026 113.0594873 88.48461914 113.87304688 C88.99215225 114.57200073 89.49968536 115.27095459 90.02259827 115.99108887 C91 118 91 118 90.6572113 120.25793457 C90.44033157 120.83281616 90.22345184 121.40769775 90 122 C85.1440131 122.24843695 80.29176501 122.42917659 75.4309082 122.54931641 C73.78051305 122.59941163 72.13055755 122.6675171 70.48168945 122.75439453 C56.88157063 123.4526791 56.88157063 123.4526791 52.53442383 120.09643555 C50.67565064 117.48696942 49.3378954 114.90827346 48 112 C46.97997874 110.28388206 45.94479792 108.57668246 44.89453125 106.87890625 C43.86384439 105.10871312 42.83658934 103.33651808 41.8125 101.5625 C36.09917182 91.76966092 30.13713211 82.15981011 24.00878906 72.62207031 C23 71 23 71 22 69 C19.97536745 68.34786708 19.97536745 68.34786708 18 68 C17.94671036 68.59888031 17.89342072 69.19776062 17.83851624 69.81478882 C17.24663202 76.12249736 16.38669837 82.3493535 15.37109375 88.6015625 C15.21713638 89.564039 15.06317902 90.5265155 14.90455627 91.51815796 C14.41827231 94.5542184 13.9279582 97.58961139 13.4375 100.625 C13.10454959 102.69917573 12.77186483 104.77339412 12.43945312 106.84765625 C11.62986177 111.89902178 10.81480871 116.94946246 10 122 C0.43 122 -9.14 122 -19 122 C-19 114.12528931 -19 114.12528931 -18.4050293 110.55957031 C-18.27456711 109.76053284 -18.14410492 108.96149536 -18.00968933 108.13824463 C-17.86598404 107.29340515 -17.72227875 106.44856567 -17.57421875 105.578125 C-17.42596146 104.6786615 -17.27770416 103.779198 -17.12495422 102.85247803 C-16.65105613 99.98408467 -16.16953171 97.11703656 -15.6875 94.25 C-15.37512016 92.37118194 -15.06326687 90.49227625 -14.75195312 88.61328125 C-14.28644641 85.80396137 -13.82073443 82.99467924 -13.35345459 80.18565369 C-11.32091257 67.95317871 -9.4176736 55.70108222 -7.51780701 43.44741821 C-6.81668383 38.92706967 -6.11379676 34.40699621 -5.41064453 29.88696289 C-5.04884887 27.55705819 -4.68820039 25.2269751 -4.32861328 22.89672852 C-3.80289824 19.49186162 -3.27296587 16.08767449 -2.7421875 12.68359375 C-2.58176971 11.63795761 -2.42135193 10.59232147 -2.256073 9.51499939 C-2.10566559 8.55541824 -1.95525818 7.5958371 -1.80029297 6.60717773 C-1.66944305 5.76291733 -1.53859314 4.91865692 -1.40377808 4.04881287 C-1 2 -1 2 0 0 Z " fill="#FCFDFE" transform="translate(592,545)"/>
<path d="M0 0 C1.04671875 -0.00708984 2.0934375 -0.01417969 3.171875 -0.02148438 C13.38216021 0.06045001 22.70420853 2.13928678 31.875 6.625 C32.97328125 7.15480469 34.0715625 7.68460937 35.203125 8.23046875 C36.00234375 8.62878906 36.8015625 9.02710938 37.625 9.4375 C36.26856298 13.15460317 34.57839775 16.2429197 32.3671875 19.51953125 C31.74199219 20.45087891 31.11679687 21.38222656 30.47265625 22.34179688 C29.82167969 23.30150391 29.17070313 24.26121094 28.5 25.25 C27.84128906 26.22904297 27.18257812 27.20808594 26.50390625 28.21679688 C24.88174211 30.62653347 23.25533154 33.03328494 21.625 35.4375 C20.79355469 35.01597656 19.96210937 34.59445312 19.10546875 34.16015625 C18.01878906 33.61230469 16.93210937 33.06445312 15.8125 32.5 C14.19408203 31.68208984 14.19408203 31.68208984 12.54296875 30.84765625 C6.72900662 28.03796371 0.88171261 27.41749528 -5.4453125 28.93359375 C-9.59775553 30.52446478 -12.25093492 32.54338069 -14.375 36.4375 C-14.86582791 40.00459633 -14.86582791 40.00459633 -13.375 43.4375 C-8.22400896 47.88382752 -1.75044356 49.91860954 4.625 51.9375 C12.9824153 54.58401485 20.70273254 57.55844579 26.5 64.4375 C27.05429687 65.076875 27.60859375 65.71625 28.1796875 66.375 C32.55580642 72.61983998 32.25088022 79.08340745 31.625 86.4375 C29.08663418 100.45620212 23.7159426 113.37011799 12 122 C-3.89234277 132.64198361 -22.52954129 135.06079391 -41.265625 131.75 C-50.11190535 129.18586077 -59.13043484 125.18201402 -66.375 119.4375 C-65.73525448 115.6260584 -63.96889002 113.04417594 -61.8125 109.875 C-61.09964844 108.82699219 -60.38679687 107.77898437 -59.65234375 106.69921875 C-56.2967772 101.89321862 -52.86208502 97.14877444 -49.375 92.4375 C-46.4528196 93.79168116 -44.07314496 95.36546137 -41.5625 97.375 C-33.0328642 103.74109679 -26.01766145 104.46149662 -15.375 103.4375 C-10.67638494 102.20905854 -8.18019432 100.53549225 -5.3125 96.625 C-4.15477963 92.68875075 -4.20897092 90.37284816 -5.375 86.4375 C-10.60611759 80.53139949 -19.61992653 78.6310828 -26.9375 76.5 C-35.79331896 73.81199848 -43.21060982 70.42960546 -48.375 62.4375 C-52.64573823 53.77901702 -50.8299621 42.63416534 -48.4765625 33.60546875 C-43.84702141 20.29143391 -34.91695756 10.62350617 -22.375 4.4375 C-21.32916748 3.92014282 -21.32916748 3.92014282 -20.26220703 3.39233398 C-13.42820919 0.30572493 -7.43483688 -0.14088016 0 0 Z " fill="#0263B9" transform="translate(757.375,387.5625)"/>
<path d="M0 0 C14.52 0 29.04 0 44 0 C49.28 10.23 54.56 20.46 60 31 C63.70016395 29.76661202 64.54703034 28.36179556 66.9375 25.3125 C71.12615506 20.05951455 75.44424498 14.94321339 79.83764648 9.8605957 C80.56189819 9.02081177 80.56189819 9.02081177 81.30078125 8.1640625 C81.72528564 7.67373535 82.14979004 7.1834082 82.5871582 6.67822266 C84.14767535 4.9236366 84.14767535 4.9236366 85.54272461 2.33276367 C88.79032793 -0.75028151 90.8094216 -0.56834904 95.16168213 -0.56648254 C96.10348328 -0.54067612 97.04528442 -0.51486969 98.015625 -0.48828125 C98.98659119 -0.48120651 99.95755737 -0.47413177 100.95794678 -0.46684265 C104.05608494 -0.43887633 107.15240908 -0.37613268 110.25 -0.3125 C112.35153638 -0.28742007 114.45310112 -0.26460637 116.5546875 -0.24414062 C121.70382287 -0.18904207 126.851604 -0.10275293 132 0 C129.6571522 4.03965552 127.09117177 7.22557058 123.875 10.625 C120.26902714 14.47867509 116.80665816 18.38159905 113.5 22.5 C109.86500611 27.01777813 106.0328971 31.27818516 102.0859375 35.51953125 C98.31186732 39.5993222 94.81553521 43.86446973 91.33203125 48.1953125 C87.86585668 52.36401156 84.18022088 56.31208674 80.48046875 60.2734375 C76.25332323 64.91996911 73.60897101 67.92098991 72.62792969 74.2590332 C72.42802429 75.49994217 72.2281189 76.74085114 72.02215576 78.0193634 C71.82172593 79.36311924 71.62164031 80.70692646 71.421875 82.05078125 C71.20475251 83.43390504 70.98624618 84.81681225 70.76641846 86.19950867 C70.19369933 89.82568645 69.63974286 93.45448721 69.08972168 97.08416748 C68.52430266 100.79291399 67.94125053 104.49888404 67.359375 108.20507812 C66.22051692 115.46733209 65.11111365 122.73323191 64 130 C51.79 130 39.58 130 27 130 C28.12391784 119.88473943 28.12391784 119.88473943 28.86376953 115.37597656 C29.02708771 114.37173645 29.19040588 113.36749634 29.3586731 112.33282471 C29.5316391 111.2793988 29.7046051 110.2259729 29.8828125 109.140625 C30.24909371 106.86855335 30.61496716 104.59641594 30.98046875 102.32421875 C31.55370547 98.7729113 32.12957903 95.22211091 32.71240234 91.67236328 C33.27714034 88.22551415 33.83086367 84.77704194 34.3828125 81.328125 C34.55982697 80.26660217 34.73684143 79.20507935 34.91921997 78.11138916 C35.07623383 77.11975769 35.23324768 76.12812622 35.39501953 75.10644531 C35.53634308 74.23868469 35.67766663 73.37092407 35.82327271 72.47686768 C36.16976512 67.6207086 34.71813442 64.08954052 32.41015625 59.89453125 C31.8783374 58.92040283 31.34651855 57.94627441 30.79858398 56.94262695 C30.22567627 55.90968506 29.65276855 54.87674316 29.0625 53.8125 C28.473479 52.73895264 27.88445801 51.66540527 27.27758789 50.55932617 C25.52490637 47.36924148 23.76322956 44.18426349 22 41 C21.11159841 39.38562614 20.22353732 37.77106482 19.3359375 36.15625 C15.85119221 29.8359129 12.32136372 23.54475604 8.71484375 17.29296875 C8.15998291 16.32963623 7.60512207 15.36630371 7.03344727 14.3737793 C5.94560308 12.48874855 4.85377477 10.60601023 3.75756836 8.72583008 C3.26780518 7.87786865 2.77804199 7.02990723 2.2734375 6.15625 C1.83435059 5.40150391 1.39526367 4.64675781 0.94287109 3.86914062 C0 2 0 2 0 0 Z " fill="#FDFDFE" transform="translate(170,541)"/>
<path d="M0 0 C12.87 0 25.74 0 39 0 C42.36804488 13.18348996 45.44617913 26.38482917 48.2890625 39.68994141 C49.48700535 45.26745142 50.7098412 50.83952069 51.93112183 56.41195679 C52.52444975 59.11948202 53.11701605 61.8271737 53.70957947 64.53486633 C54.01086505 65.91157276 54.31218565 67.28827153 54.61354065 68.66496277 C55.72102467 73.7243838 56.82749306 78.78402638 57.93359375 83.84375 C58.40723905 86.01010304 58.88089512 88.17645372 59.35455322 90.34280396 C59.65566775 91.72013304 59.9567352 93.09747243 60.25775146 94.474823 C61.82648363 101.65259605 63.40038472 108.82904174 65 116 C75.08457995 86.94693504 84.71685841 57.7494925 94.28052998 28.52179146 C95.32080292 25.34313705 96.36208977 22.16481519 97.40343285 18.98651123 C98.13196985 16.76102794 98.85867545 14.53495228 99.58528137 12.30883789 C100.02527946 10.96506148 100.46535371 9.62131001 100.90551758 8.27758789 C101.28742752 7.10885635 101.66933746 5.94012482 102.06282043 4.73597717 C103 2 103 2 104 0 C115.88 0 127.76 0 140 0 C141.19625 5.56875 142.3925 11.1375 143.625 16.875 C146.94594417 32.28333466 150.38652397 47.65729734 154 63 C154.32572998 62.39341553 154.65145996 61.78683105 154.98706055 61.16186523 C162.66170913 46.88752758 170.49370137 32.71504275 178.50732422 18.62841797 C180.78760548 14.61312388 183.05094606 10.58836274 185.3125 6.5625 C186.529375 4.396875 187.74625 2.23125 189 0 C200.88 0 212.76 0 225 0 C225.02760994 11.16668716 225.05107877 22.3332956 225.0625 33.5 C225.06335602 34.33097954 225.06421204 35.16195908 225.06509399 36.01811981 C225.09358396 67.35717544 224.71035461 98.6682876 224 130 C212.12 130 200.24 130 188 130 C187.88705214 107.97516729 188.31184321 86.0118662 189 64 C188.16082031 65.53140625 188.16082031 65.53140625 187.3046875 67.09375 C181.83612612 77.02791534 176.26503296 86.899111 170.45214844 96.63671875 C167.28325039 101.96414156 164.30542416 107.31073086 161.5546875 112.8671875 C153.42054288 128.85067748 153.42054288 128.85067748 148.828125 131.03125 C143.99215924 132.03179464 139.70296021 131.31927195 135 130 C129.12516667 108.12562059 124.06755432 86.0731224 119 64 C115.75689876 73.52869951 112.61962378 83.0661861 109.82763672 92.73754883 C108.09305401 98.73764707 106.22195511 104.68748896 104.30859375 110.6328125 C102.38723383 117.04499278 100.72475614 123.53216449 99 130 C75.57 130 52.14 130 28 130 C24 112 24 112 24 108 C0.04745314 105.2255319 0.04745314 105.2255319 -22.21435547 111.10839844 C-27.39961585 117.01283046 -28.51481679 122.16932839 -31 130 C-43.87 130 -56.74 130 -70 130 C-68.53649358 126.34123395 -67.0616624 123.10480539 -65.19921875 119.66796875 C-64.64089355 118.63446289 -64.08256836 117.60095703 -63.50732422 116.53613281 C-62.90678223 115.43108398 -62.30624023 114.32603516 -61.6875 113.1875 C-60.73652689 111.43000539 -59.78555395 109.67251068 -58.83459473 107.91500854 C-57.85900573 106.1131973 -56.88210334 104.3121043 -55.90478516 102.51123047 C-54.13555259 99.24987406 -52.36974442 95.98669615 -50.60546875 92.72265625 C-44.93289623 82.23193233 -39.23505698 71.75519502 -33.51904297 61.28808594 C-29.83174928 54.53308976 -26.1626829 47.76836793 -22.5 41 C-18.15561698 32.97382581 -13.80396207 24.95168719 -9.4375 16.9375 C-8.94894531 16.03966797 -8.46039063 15.14183594 -7.95703125 14.21679688 C-7.49554688 13.37052734 -7.0340625 12.52425781 -6.55859375 11.65234375 C-6.15954834 10.92007568 -5.76050293 10.18780762 -5.34936523 9.43334961 C-3.59632052 6.27203305 -1.79346425 3.13856243 0 0 Z M2 4 C0.123125 7.465 -1.75375 10.93 -3.6875 14.5 C-4.32252441 15.67224121 -4.95754883 16.84448242 -5.61181641 18.05224609 C-8.52085039 23.42231435 -11.42927233 28.79271166 -14.3359375 34.1640625 C-19.52050714 43.74315723 -24.71454443 53.31677459 -29.9375 62.875 C-34.91712603 71.98904453 -39.84835476 81.12858546 -44.76025391 90.27929688 C-47.65480819 95.66654093 -50.56626686 101.04311873 -53.51953125 106.3984375 C-54.07447266 107.40648437 -54.62941406 108.41453125 -55.20117188 109.453125 C-56.24930777 111.35374475 -57.30119454 113.25230246 -58.35742188 115.1484375 C-58.82341797 115.9940625 -59.28941406 116.8396875 -59.76953125 117.7109375 C-60.17792236 118.44618652 -60.58631348 119.18143555 -61.00708008 119.93896484 C-62.20577375 122.24918159 -62.20577375 122.24918159 -63 126 C-53.1 126 -43.2 126 -33 126 C-32.01 122.555625 -31.02 119.11125 -30 115.5625 C-28.02699761 110.93182878 -25.57075452 107.29826418 -21 105 C-5.89076164 101.04815755 11.56562642 103.08406922 27 104 C27.495 107.465 27.495 107.465 28 111 C28.99 115.95 29.98 120.9 31 126 C41.23 126 51.46 126 62 126 C61.20564676 118.62791572 61.20564676 118.62791572 59.90625 111.4375 C59.57488037 109.90440186 59.57488037 109.90440186 59.23681641 108.34033203 C58.99366699 107.23802246 58.75051758 106.13571289 58.5 105 C58.24009277 103.80358887 57.98018555 102.60717773 57.71240234 101.37451172 C56.81410711 97.24837343 55.90821735 93.12396276 55 89 C54.83181763 88.23594849 54.66363525 87.47189697 54.49035645 86.68469238 C54.13677532 85.07839565 53.78315199 83.47210821 53.42948914 81.86582947 C52.68529481 78.48568291 51.94139126 75.10547238 51.19754028 71.72525024 C50.81563242 69.99077662 50.43336882 68.25638129 50.05075073 66.52206421 C47.89231467 56.73647599 45.76414467 46.94580208 43.71484375 37.13671875 C43.53203857 36.26233154 43.3492334 35.38794434 43.16088867 34.48706055 C42.28908377 30.31107987 41.42256533 26.13408073 40.56298828 21.95556641 C40.25168803 20.45604214 39.94033052 18.95652976 39.62890625 17.45703125 C39.49282455 16.78701584 39.35674286 16.11700043 39.21653748 15.42668152 C38.38857777 11.457053 37.29511434 7.88534302 36 4 C24.78 4 13.56 4 2 4 Z M106 4 C105.2575 6.206875 104.515 8.41375 103.75 10.6875 C103.33234375 11.92886719 102.9146875 13.17023437 102.484375 14.44921875 C101.35511072 17.86100557 100.29970758 21.29105304 99.2578125 24.73046875 C96.6869898 33.12490556 93.87846152 41.43832434 91.08551025 49.76095581 C85.68723805 65.85749417 80.33159371 81.96834101 75.05267334 98.10443115 C74.43757446 99.98291295 73.82093258 101.86089024 73.20269775 103.73834229 C72.34177615 106.35412714 71.48652143 108.97169746 70.6328125 111.58984375 C70.37935059 112.35661942 70.12588867 113.12339508 69.86474609 113.91340637 C69.63239258 114.63026108 69.40003906 115.34711578 69.16064453 116.08569336 C68.95939972 116.70053085 68.75815491 117.31536835 68.55081177 117.94883728 C67.84199952 120.58837649 67.44931125 123.30413253 67 126 C76.57 126 86.14 126 96 126 C97.08539063 122.39449219 98.17078125 118.78898438 99.2890625 115.07421875 C100.36118946 111.51594096 101.43374889 107.9577938 102.50634766 104.3996582 C103.24182406 101.95903867 103.97686291 99.51828722 104.71142578 97.07739258 C106.80641074 90.11649782 108.91235021 83.15907841 111.02990723 76.20501709 C111.95102842 73.16179354 112.85554912 70.11408666 113.75683594 67.06494141 C114.2826968 65.32048531 114.80902952 63.57617135 115.3359375 61.83203125 C115.56471588 61.0407634 115.79349426 60.24949554 116.02920532 59.43424988 C116.68896484 57.28051758 116.68896484 57.28051758 118 54 C118.99 53.67 119.98 53.34 121 53 C121.10666992 53.62438965 121.21333984 54.2487793 121.32324219 54.89208984 C122.72410708 62.85968945 124.45119601 70.73913801 126.25 78.625 C126.40173676 79.2932077 126.55347351 79.96141541 126.70980835 80.64987183 C128.86328379 90.1318947 131.05873241 99.60376345 133.3125 109.0625 C133.55452148 110.08359863 133.79654297 111.10469727 134.04589844 112.15673828 C135.175178 116.85145126 136.36531977 121.44898885 138 126 C141.83500378 126.64492297 145.18470514 126.84539039 149 126 C152.17365474 123.06288122 153.84527662 119.46796182 155.75 115.625 C156.93916883 113.4122575 158.12930646 111.20003542 159.3203125 108.98828125 C159.92262695 107.83537598 160.52494141 106.6824707 161.14550781 105.49462891 C164.14560755 99.84120241 167.39669556 94.33763655 170.625 88.8125 C171.87018266 86.65331925 173.1136884 84.49317051 174.35546875 82.33203125 C176.7677059 78.13781587 179.18759354 73.94816802 181.61328125 69.76171875 C182.72154129 67.8412538 183.8296235 65.92068623 184.9375 64 C185.45199707 63.11546143 185.96649414 62.23092285 186.49658203 61.31958008 C187.19243408 60.10951294 187.19243408 60.10951294 187.90234375 58.875 C188.30960693 58.17117188 188.71687012 57.46734375 189.13647461 56.7421875 C190.14803235 55.02541576 190.14803235 55.02541576 190 53 C191.32 53 192.64 53 194 53 C193.96241577 53.86299461 193.96241577 53.86299461 193.92407227 54.74342346 C193.65860975 60.86166484 193.40021893 66.98017878 193.14550781 73.09887695 C193.05022944 75.3668538 192.95328793 77.63476154 192.85449219 79.90258789 C192.18583894 95.28502401 191.90227379 110.60201433 192 126 C201.57 126 211.14 126 221 126 C221 85.74 221 45.48 221 4 C211.1 4 201.2 4 191 4 C187.720625 9.9090625 187.720625 9.9090625 184.375 15.9375 C173.97802762 34.65936887 163.51085591 53.34184044 153 72 C152.67 72 152.34 72 152 72 C146.94384456 49.34563988 141.96982011 26.67342375 137 4 C126.77 4 116.54 4 106 4 Z " fill="#156FBE" transform="translate(338,541)"/>
<path d="M0 0 C12.21 0 24.42 0 37 0 C36.3923957 6.07604301 35.76146899 12.04091437 34.80859375 18.0546875 C34.5839824 19.50781219 34.35937308 20.9609372 34.13476562 22.4140625 C33.78439876 24.65897831 33.43299857 26.90373014 33.08129883 29.1484375 C32.73793291 31.34597935 32.39814507 33.54405355 32.05859375 35.7421875 C31.85548584 37.0401123 31.65237793 38.33803711 31.44311523 39.67529297 C30.91192582 43.10180557 30.91192582 43.10180557 31 47 C31.42120117 46.51241211 31.84240234 46.02482422 32.27636719 45.52246094 C36.49805285 40.66274887 40.82796929 35.92740458 45.25 31.25 C50.58719305 25.58034553 55.89056269 19.88352188 61.14453125 14.13671875 C61.58442383 13.68643311 62.02431641 13.23614746 62.47753906 12.7722168 C64.14994572 10.91826769 64.14994572 10.91826769 65.71777344 8.22192383 C68.71764928 3.94802918 71.23911852 0.65848861 76.40896606 -0.57455444 C83.47059983 -1.38526065 90.54193073 -1.00085782 97.625 -0.6875 C99.79544885 -0.63225869 101.9660328 -0.58207989 104.13671875 -0.53710938 C109.42745089 -0.41653839 114.71309198 -0.23307213 120 0 C114.31978209 6.94103433 107.94998244 13.17673906 101.6015625 19.49609375 C100.39922532 20.69656287 99.19711095 21.89725518 97.99520874 23.09815979 C94.85090837 26.23866548 91.70361521 29.37615481 88.55566406 32.51300049 C85.33605827 35.72232618 82.11932679 38.93453005 78.90234375 42.14648438 C72.60435365 48.43379102 66.30319435 54.71791106 60 61 C61.6289405 65.27543127 63.76533649 68.87316189 66.34375 72.6328125 C67.24916002 73.97136723 68.15408514 75.31025005 69.05859375 76.64941406 C69.77668213 77.70884216 69.77668213 77.70884216 70.50927734 78.78967285 C73.08572213 82.60982399 75.61764814 86.45933608 78.15625 90.3046875 C79.73619171 92.68948784 81.31723951 95.073552 82.8984375 97.45751953 C83.98205556 99.09318814 85.06404186 100.72993875 86.14453125 102.36767578 C87.72749709 104.76620904 89.31625713 107.16080866 90.90625 109.5546875 C91.38952759 110.28992645 91.87280518 111.02516541 92.37072754 111.78268433 C94.63508278 115.46447079 94.63508278 115.46447079 98 118 C98.25797363 117.31349365 98.51594727 116.6269873 98.78173828 115.91967773 C100.16650248 112.6009613 101.79730974 109.45190987 103.4921875 106.28515625 C103.83406097 105.64174789 104.17593445 104.99833954 104.52816772 104.33543396 C105.64108064 102.24300641 106.75787831 100.15268315 107.875 98.0625 C108.65080312 96.60681718 109.42651858 95.15108764 110.20214844 93.6953125 C115.91426508 82.98531742 121.70357048 72.31885427 127.53759766 61.67480469 C130.18502462 56.83253259 132.81072287 51.97849575 135.4375 47.125 C135.97286377 46.13604736 136.50822754 45.14709473 137.05981445 44.12817383 C138.1493564 42.11529126 139.2387924 40.10235134 140.328125 38.08935547 C143.19695666 32.78821706 146.06715048 27.48781665 148.9375 22.1875 C149.71661743 20.74818115 149.71661743 20.74818115 150.51147461 19.27978516 C153.99528522 12.84632205 157.49659789 6.42290386 161 0 C173.87 0 186.74 0 200 0 C201.53786763 3.84466908 202.50656329 6.92840238 203.296875 10.91796875 C203.53027588 12.0766748 203.76367676 13.23538086 204.00415039 14.42919922 C204.25028076 15.66943848 204.49641113 16.90967773 204.75 18.1875 C205.28275565 20.81953331 205.81705314 23.45115915 206.35546875 26.08203125 C206.49162094 26.74755005 206.62777313 27.41306885 206.76805115 28.09875488 C208.09677684 34.54856892 209.56143172 40.96346785 211.0625 47.375 C213.57569279 58.12376953 215.95825871 68.89469542 218.28320312 79.68554688 C219.58471995 85.70373229 220.90226025 91.71841925 222.21878052 97.7333374 C222.67597329 99.82233243 223.13281749 101.91140343 223.58959961 104.00048828 C223.73333511 104.6571347 223.87707062 105.31378113 224.02516174 105.99032593 C224.43771603 107.87708152 224.84852183 109.76421917 225.25927734 111.65136719 C225.70832266 113.68139537 226.16894198 115.70897333 226.65087891 117.73144531 C226.83440918 118.50327148 227.01793945 119.27509766 227.20703125 120.0703125 C227.36276611 120.69953613 227.51850098 121.32875977 227.67895508 121.97705078 C228.09846253 124.62042626 228 127.3235433 228 130 C215.46 130 202.92 130 190 130 C188.0231953 123.08118356 186.50770379 116.03595104 185 109 C170.81 108.67 156.62 108.34 142 108 C141.34 109.65 140.68 111.3 140 113 C139.31643353 114.33141825 138.6071205 115.64997409 137.87109375 116.953125 C137.47599609 117.654375 137.08089844 118.355625 136.67382812 119.078125 C136.26583984 119.79484375 135.85785156 120.5115625 135.4375 121.25 C135.02564453 121.9821875 134.61378906 122.714375 134.18945312 123.46875 C131.13862607 128.86137393 131.13862607 128.86137393 130 130 C127.77959029 130.16820379 125.55378819 130.26544286 123.328125 130.33569336 C122.63042496 130.35832748 121.93272491 130.38096161 121.21388245 130.40428162 C114.7540607 130.60192148 108.29225036 130.71701609 101.8301239 130.80750179 C97.48892161 130.86924469 93.15199807 130.95761484 88.81298828 131.11108398 C84.61625718 131.25888814 80.4234114 131.33688446 76.22424316 131.36721992 C74.62904923 131.3904518 73.03400635 131.43793178 71.44030762 131.51078606 C59.32816313 132.03900681 59.32816313 132.03900681 55.47627831 128.66552353 C52.71314317 125.35683013 50.75646791 121.70668007 48.90890312 117.83022499 C47.42795234 114.84808854 45.62314823 112.10224677 43.83203125 109.296875 C42.49073168 107.11547782 41.15087916 104.93319019 39.8125 102.75 C39.14025391 101.656875 38.46800781 100.56375 37.77539062 99.4375 C34.17158414 93.57034864 30.60764713 87.68545305 27.13549805 81.73925781 C26.57342651 80.8783252 26.57342651 80.8783252 26 80 C25.67 80 25.34 80 25 80 C24.79318604 81.30146973 24.58637207 82.60293945 24.37329102 83.94384766 C23.60382393 88.78568062 22.83406055 93.62746644 22.06420898 98.46923828 C21.73144618 100.56232444 21.39876305 102.65542327 21.06616211 104.74853516 C20.58728798 107.76207788 20.1081246 110.7755745 19.62890625 113.7890625 C19.48095108 114.72054108 19.33299591 115.65201965 19.18055725 116.61172485 C19.04048752 117.49218475 18.90041779 118.37264465 18.75610352 119.27978516 C18.63396988 120.04811676 18.51183624 120.81644836 18.38600159 121.60806274 C17.9343105 124.40705835 17.46610523 127.2033686 17 130 C4.79 130 -7.42 130 -20 130 C-17.82432285 113.44224924 -15.27454579 96.9714236 -12.57570648 80.49167633 C-11.57256065 74.35749752 -10.57895569 68.22176259 -9.5859375 62.0859375 C-9.47595051 61.40664059 -9.36596352 60.72734367 -9.25264359 60.02746201 C-6.01928274 40.04116686 -2.99650026 20.02297194 0 0 Z M4 4 C2.78614386 8.24849647 1.74765712 11.89059747 1.10205078 16.15551758 C0.95494659 17.11214798 0.80784241 18.06877838 0.65628052 19.05439758 C0.50416107 20.07414169 0.35204163 21.0938858 0.1953125 22.14453125 C0.03006073 23.22715744 -0.13519104 24.30978363 -0.30545044 25.42521667 C-0.8328934 28.88701295 -1.35409492 32.34971455 -1.875 35.8125 C-2.21702602 38.06581929 -2.55947048 40.3190751 -2.90234375 42.57226562 C-3.59075255 47.09978131 -4.27752401 51.62754039 -4.96289062 56.15551758 C-7.6344674 73.7945118 -10.3314078 91.41849705 -13.41796875 108.99023438 C-13.62550781 110.20388672 -13.83304688 111.41753906 -14.046875 112.66796875 C-14.23088867 113.72266357 -14.41490234 114.7773584 -14.60449219 115.86401367 C-15.14598254 119.63069264 -15.14598254 119.63069264 -15 126 C-5.43 126 4.14 126 14 126 C15.1430262 119.11377741 16.28361284 112.22724281 17.41796875 105.33959961 C17.80455161 102.99691395 18.19256186 100.65446337 18.58203125 98.31225586 C19.14178413 94.94445696 19.69638851 91.57584443 20.25 88.20703125 C20.42499023 87.16102249 20.59998047 86.11501373 20.78027344 85.03730774 C20.94043945 84.05666855 21.10060547 83.07602936 21.265625 82.06567383 C21.40774414 81.20629715 21.54986328 80.34692047 21.69628906 79.46150208 C22.00635022 76.94853303 22.0531705 74.52932856 22 72 C24.51423945 72.36427617 25.6931459 72.63246352 27.34936523 74.61621094 C27.74841064 75.31520508 28.14745605 76.01419922 28.55859375 76.734375 C29.02048096 77.52593994 29.48236816 78.31750488 29.95825195 79.13305664 C30.44640381 79.99664795 30.93455566 80.86023926 31.4375 81.75 C32.50106131 83.57772158 33.5662198 85.40451451 34.6328125 87.23046875 C35.18356445 88.17970215 35.73431641 89.12893555 36.30175781 90.10693359 C39.0607639 94.80708053 41.93373133 99.43505607 44.8125 104.0625 C45.35865967 104.94228516 45.90481934 105.82207031 46.4675293 106.72851562 C52.08433185 116.8829552 52.08433185 116.8829552 59 126 C61.59359322 126.08851529 64.16039691 126.11525945 66.75390625 126.09765625 C67.52935287 126.0962413 68.3047995 126.09482635 69.10374451 126.09336853 C71.59003494 126.08775345 74.0762366 126.07519846 76.5625 126.0625 C78.24413933 126.05748694 79.92578006 126.0529237 81.60742188 126.04882812 C85.73831566 126.03777913 89.86914276 126.02050445 94 126 C94.91821624 123.53333651 95.2006961 122.44250078 94.09332275 120.00093079 C93.60909851 119.29719833 93.12487427 118.59346588 92.62597656 117.8684082 C92.08080383 117.06268875 91.5356311 116.2569693 90.97393799 115.42683411 C90.06644806 114.12693794 90.06644806 114.12693794 89.140625 112.80078125 C88.52161316 111.89232956 87.90260132 110.98387787 87.26483154 110.04789734 C85.27167315 107.12782321 83.26150426 104.21995918 81.25 101.3125 C79.29123834 98.45813149 77.33607982 95.60132266 75.38146973 92.74411011 C74.10029168 90.87163315 72.81766743 89.00014486 71.53356934 87.12966919 C65.86354322 78.85385046 60.39135154 70.45935433 55 62 C59.88357025 56.05539432 65.24372036 50.6506687 70.70898056 45.24641991 C72.33370042 43.63926958 73.95469708 42.02844659 75.57473755 40.4165802 C80.17607949 35.8395545 84.78322851 31.26840545 89.39453125 26.70141602 C92.22613034 23.89652145 95.05290194 21.08683727 97.8767128 18.27410316 C98.95217541 17.20485862 100.02953298 16.13751661 101.10879135 15.0721035 C102.60944941 13.59055598 104.10394345 12.10304748 105.59716797 10.61401367 C106.87574173 9.34662605 106.87574173 9.34662605 108.18014526 8.05363464 C110.22107445 6.20785191 110.22107445 6.20785191 110 4 C89.0100658 1.23651924 89.0100658 1.23651924 69.8046875 7.05859375 C66.73097042 10.10452449 64.30321279 13.51080879 62.08007812 17.21484375 C60.77275549 19.37559039 59.22451205 21.16052048 57.5 23 C56.73429688 23.88945313 56.73429688 23.88945313 55.953125 24.796875 C52.51915481 28.67039337 48.96042226 32.42911771 45.41650391 36.2019043 C42.51091642 39.29776165 39.62184065 42.40363864 36.7890625 45.56640625 C36.2950293 46.11586914 35.80099609 46.66533203 35.29199219 47.23144531 C33.95847422 48.71936095 32.63136187 50.21301042 31.3046875 51.70703125 C29.1877013 53.81325311 27.65439759 54.77475912 25 56 C25.10022461 55.3927861 25.20044922 54.7855722 25.30371094 54.15995789 C26.34467099 47.85035467 27.38229554 41.54020945 28.41796875 35.22973633 C28.80513028 32.87347518 29.19314734 30.51735445 29.58203125 28.16137695 C30.14026288 24.77852177 30.69543429 21.39517658 31.25 18.01171875 C31.42499023 16.95538742 31.59998047 15.89905609 31.78027344 14.81071472 C31.94043945 13.82992447 32.10060547 12.84913422 32.265625 11.83862305 C32.40774414 10.97480515 32.54986328 10.11098724 32.69628906 9.22099304 C33.06774234 6.87822068 33.06774234 6.87822068 33 4 C23.43 4 13.86 4 4 4 Z M163 4 C159.1946875 11.2084375 159.1946875 11.2084375 155.3125 18.5625 C150.065367 28.47162873 144.75910652 38.3307376 139.1875 48.0625 C134.40481727 56.4192666 129.87472202 64.8785837 125.45458984 73.43212891 C121.98277561 80.14292675 118.43309788 86.80578595 114.8125 93.4375 C114.31838623 94.34435547 113.82427246 95.25121094 113.31518555 96.18554688 C111.00608174 100.40501056 108.66638224 104.60102153 106.24609375 108.7578125 C105.82287842 109.48943604 105.39966309 110.22105957 104.96362305 110.97485352 C104.18187332 112.31960144 103.3910291 113.65912397 102.58911133 114.99194336 C100.57703275 118.45381198 99.43805655 120.97027395 100 125 C103.29008324 128.29008324 113.42597917 126.86277584 117.83813477 126.94750977 C125.3095912 127.02299588 125.3095912 127.02299588 131.4296875 123.34765625 C133.43127427 119.94807405 134.77427097 116.74261747 136 113 C136.7940914 111.58147471 137.61914548 110.178842 138.5 108.8125 C140.15686275 106.23713235 140.15686275 106.23713235 140 104 C155.84 104 171.68 104 188 104 C188.99 109.94 188.99 109.94 190 116 C190.99 119.3 191.98 122.6 193 126 C203.23 126 213.46 126 224 126 C221.77327796 113.83867194 219.31639695 101.79611334 216.48925781 89.76171875 C214.26176304 80.23801417 212.17867358 70.68728933 210.125 61.125 C207.478211 48.81869274 204.81472537 36.51639076 202.09588623 24.22576904 C201.74192576 22.6242994 201.38892996 21.02261622 201.03692627 19.42071533 C200.54937497 17.20306442 200.0583985 14.98620053 199.56640625 12.76953125 C199.28740479 11.50729736 199.00840332 10.24506348 198.72094727 8.94458008 C198.13733044 6.08993123 198.13733044 6.08993123 197 4 C185.78 4 174.56 4 163 4 Z " fill="#146EBE" transform="translate(588,541)"/>
<path d="M0 0 C7.72879671 -0.09335842 15.45745725 -0.16409439 23.18667889 -0.20724869 C26.77708271 -0.22797799 30.36709615 -0.25602042 33.95727539 -0.30175781 C37.43271947 -0.3457481 40.90779206 -0.36924676 44.38349342 -0.37950897 C46.3313639 -0.39031783 48.27908834 -0.42145527 50.22673035 -0.45318604 C62.16696255 -0.45614226 73.80774624 1.91971242 83 10 C90.74941343 18.35066102 91.55742212 26.51514735 91.30859375 37.44921875 C90.70959349 49.46650615 84.87735467 60.79804677 76.0625 68.9375 C70.83015924 73.16596143 65.6296676 75.83207928 59 77 C64.09628491 86.22025231 69.53727964 95.21971604 75.0625 104.1875 C75.73474609 105.2791748 76.40699219 106.37084961 77.09960938 107.49560547 C80.90907792 113.66318345 84.77433948 119.78539971 88.74780273 125.84887695 C90 128 90 128 90 130 C75.15 130 60.3 130 45 130 C39.93042862 119.86085724 34.89885813 109.7202285 30 99.5 C29.41027284 98.27207941 28.82042926 97.04421474 28.23046875 95.81640625 C26.81917847 92.87814615 25.4090278 89.93934554 24 87 C23.39308515 90.43702044 22.78957481 93.87462846 22.1875 97.3125 C21.91619263 98.8605835 21.91619263 98.8605835 21.6394043 100.43994141 C20.31482596 108.05319934 19.07871875 115.67643663 17.9519043 123.3215332 C17.10709216 128.89290784 17.10709216 128.89290784 16 130 C13.3337397 130.08855161 10.69352886 130.11524673 8.02734375 130.09765625 C7.22970108 130.0962413 6.43205841 130.09482635 5.61024475 130.09336853 C3.05262565 130.08775316 0.49509282 130.07519812 -2.0625 130.0625 C-3.79231645 130.05748698 -5.52213426 130.05292373 -7.25195312 130.04882812 C-11.50133553 130.03777875 -15.75065312 130.02050386 -20 130 C-19.46492095 121.51191989 -18.53430814 113.20684089 -17.109375 104.82421875 C-16.92451538 103.70819275 -16.73965576 102.59216675 -16.54919434 101.44232178 C-15.95437555 97.85654406 -15.3521403 94.27205472 -14.75 90.6875 C-14.12967241 86.95650918 -13.51144236 83.22517516 -12.89349365 79.49378967 C-12.48704723 77.03954167 -12.08002898 74.5853883 -11.67242432 72.1313324 C-9.96905264 61.86289618 -8.34881555 51.58351467 -6.76690674 41.29576111 C-5.36315029 32.21824708 -3.87834036 23.15638836 -2.359375 14.09765625 C-2.12867078 12.71815181 -1.89803898 11.33863525 -1.66748047 9.95910645 C-1.11236046 6.63928534 -0.55652442 3.31958591 0 0 Z M3 4 C-1.7971496 32.94555852 -6.58362837 61.89417906 -11.09985352 90.88513184 C-11.4479257 93.11539911 -11.79832176 95.34530503 -12.15112305 97.5748291 C-12.64149409 100.67906759 -13.12282919 103.78457329 -13.6015625 106.890625 C-13.74481964 107.7880542 -13.88807678 108.6854834 -14.03567505 109.61010742 C-14.1639267 110.45581299 -14.29217834 111.30151855 -14.42431641 112.17285156 C-14.59225204 113.25255219 -14.59225204 113.25255219 -14.76358032 114.35406494 C-15.10913776 118.22143568 -15 122.11722182 -15 126 C-5.76 126 3.48 126 13 126 C14.24943371 119.75283147 15.46256543 113.53326695 16.5078125 107.25390625 C16.63815887 106.47611313 16.76850525 105.69832001 16.90280151 104.8969574 C17.17413793 103.27462194 17.44465112 101.65214859 17.71435547 100.02954102 C18.1282003 97.54327348 18.54640321 95.05776335 18.96484375 92.57226562 C19.22942915 90.98702295 19.49376136 89.401738 19.7578125 87.81640625 C19.88278107 87.0758046 20.00774963 86.33520294 20.13650513 85.57215881 C20.61504141 82.6747185 21 79.9426655 21 77 C24 78 24 78 25.39111328 80.38232422 C25.86274902 81.4292041 26.33438477 82.47608398 26.8203125 83.5546875 C27.35172852 84.71895264 27.88314453 85.88321777 28.43066406 87.08276367 C28.99551285 88.34681111 29.56029014 89.61089049 30.125 90.875 C30.70423613 92.15067725 31.28464505 93.42582262 31.86621094 94.70043945 C33.031573 97.25606335 34.19265307 99.81356063 35.35058594 102.37255859 C37.60577848 107.3322464 39.91701164 112.26402978 42.25 117.1875 C42.62012207 117.97560059 42.99024414 118.76370117 43.37158203 119.57568359 C44.82766318 123.02261934 44.82766318 123.02261934 47 126 C49.6662603 126.08855161 52.30647114 126.11524673 54.97265625 126.09765625 C56.16912025 126.09553383 56.16912025 126.09553383 57.38975525 126.09336853 C59.94737435 126.08775316 62.50490718 126.07519812 65.0625 126.0625 C66.79231645 126.05748698 68.52213426 126.05292373 70.25195312 126.04882812 C74.50133553 126.03777875 78.75065312 126.02050386 83 126 C81.54190886 122.02001567 79.64465581 118.56399375 77.4375 114.94921875 C76.91560341 114.09145088 76.91560341 114.09145088 76.38316345 113.21635437 C75.25907312 111.37115951 74.12956714 109.52934615 73 107.6875 C72.22830561 106.42221544 71.45690348 105.15675258 70.68579102 103.89111328 C66.09340463 96.36410127 61.469366 88.85646157 56.69335938 81.4440918 C54 77.2139683 54 77.2139683 54 75 C55.134375 74.773125 56.26875 74.54625 57.4375 74.3125 C64.85390566 72.44524893 70.94542091 68.73763032 76 63 C76.48082031 62.53335938 76.96164062 62.06671875 77.45703125 61.5859375 C85.1384361 53.69062011 87.43952858 43.8964347 87.5625 33.1875 C87.57716309 32.39956055 87.59182617 31.61162109 87.60693359 30.79980469 C87.48637225 23.90020985 85.42026785 18.77816328 80.88671875 13.57421875 C72.74454319 6.58901308 65.86309605 3.86274433 54.99462891 3.88647461 C53.25350327 3.88658791 53.25350327 3.88658791 51.47720337 3.88670349 C50.23949188 3.89186478 49.0017804 3.89702606 47.7265625 3.90234375 C46.44768158 3.9037587 45.16880066 3.90517365 43.85116577 3.90663147 C40.46788664 3.91126978 37.08467614 3.92023919 33.70141602 3.93133545 C30.24235626 3.94160485 26.78328939 3.94614089 23.32421875 3.95117188 C16.54946034 3.96218391 9.77473413 3.97890936 3 4 Z " fill="#166FBF" transform="translate(839,541)"/>
<path d="M0 0 C14.52 0 29.04 0 44 0 C49.28 10.23 54.56 20.46 60 31 C63.70016395 29.76661202 64.54703034 28.36179556 66.9375 25.3125 C71.12615506 20.05951455 75.44424498 14.94321339 79.83764648 9.8605957 C80.56189819 9.02081177 80.56189819 9.02081177 81.30078125 8.1640625 C81.72528564 7.67373535 82.14979004 7.1834082 82.5871582 6.67822266 C84.14767535 4.9236366 84.14767535 4.9236366 85.54272461 2.33276367 C88.79032793 -0.75028151 90.8094216 -0.56834904 95.16168213 -0.56648254 C96.10348328 -0.54067612 97.04528442 -0.51486969 98.015625 -0.48828125 C98.98659119 -0.48120651 99.95755737 -0.47413177 100.95794678 -0.46684265 C104.05608494 -0.43887633 107.15240908 -0.37613268 110.25 -0.3125 C112.35153638 -0.28742007 114.45310112 -0.26460637 116.5546875 -0.24414062 C121.70382287 -0.18904207 126.851604 -0.10275293 132 0 C129.6571522 4.03965552 127.09117177 7.22557058 123.875 10.625 C120.26902714 14.47867509 116.80665816 18.38159905 113.5 22.5 C109.86500611 27.01777813 106.0328971 31.27818516 102.0859375 35.51953125 C98.31186732 39.5993222 94.81553521 43.86446973 91.33203125 48.1953125 C87.86585668 52.36401156 84.18022088 56.31208674 80.48046875 60.2734375 C76.25332323 64.91996911 73.60897101 67.92098991 72.62792969 74.2590332 C72.42802429 75.49994217 72.2281189 76.74085114 72.02215576 78.0193634 C71.82172593 79.36311924 71.62164031 80.70692646 71.421875 82.05078125 C71.20475251 83.43390504 70.98624618 84.81681225 70.76641846 86.19950867 C70.19369933 89.82568645 69.63974286 93.45448721 69.08972168 97.08416748 C68.52430266 100.79291399 67.94125053 104.49888404 67.359375 108.20507812 C66.22051692 115.46733209 65.11111365 122.73323191 64 130 C51.79 130 39.58 130 27 130 C28.12391784 119.88473943 28.12391784 119.88473943 28.86376953 115.37597656 C29.02708771 114.37173645 29.19040588 113.36749634 29.3586731 112.33282471 C29.5316391 111.2793988 29.7046051 110.2259729 29.8828125 109.140625 C30.24909371 106.86855335 30.61496716 104.59641594 30.98046875 102.32421875 C31.55370547 98.7729113 32.12957903 95.22211091 32.71240234 91.67236328 C33.27714034 88.22551415 33.83086367 84.77704194 34.3828125 81.328125 C34.55982697 80.26660217 34.73684143 79.20507935 34.91921997 78.11138916 C35.07623383 77.11975769 35.23324768 76.12812622 35.39501953 75.10644531 C35.53634308 74.23868469 35.67766663 73.37092407 35.82327271 72.47686768 C36.16976512 67.6207086 34.71813442 64.08954052 32.41015625 59.89453125 C31.8783374 58.92040283 31.34651855 57.94627441 30.79858398 56.94262695 C30.22567627 55.90968506 29.65276855 54.87674316 29.0625 53.8125 C28.473479 52.73895264 27.88445801 51.66540527 27.27758789 50.55932617 C25.52490637 47.36924148 23.76322956 44.18426349 22 41 C21.11159841 39.38562614 20.22353732 37.77106482 19.3359375 36.15625 C15.85119221 29.8359129 12.32136372 23.54475604 8.71484375 17.29296875 C8.15998291 16.32963623 7.60512207 15.36630371 7.03344727 14.3737793 C5.94560308 12.48874855 4.85377477 10.60601023 3.75756836 8.72583008 C3.26780518 7.87786865 2.77804199 7.02990723 2.2734375 6.15625 C1.83435059 5.40150391 1.39526367 4.64675781 0.94287109 3.86914062 C0 2 0 2 0 0 Z M7 4 C8.38324633 8.14973899 9.54793213 11.29785949 11.58203125 15.02734375 C12.09572266 15.97343506 12.60941406 16.91952637 13.13867188 17.89428711 C13.69103516 18.89854736 14.24339844 19.90280762 14.8125 20.9375 C15.38419922 21.98494385 15.95589844 23.0323877 16.54492188 24.11157227 C21.65060593 33.43502565 26.86845646 42.69454032 32.125 51.93359375 C32.60324219 52.78808105 33.08148438 53.64256836 33.57421875 54.52294922 C34.51314186 56.15416735 35.49458604 57.76174515 36.51953125 59.34033203 C40.08284197 65.01291656 40.41822364 68.52216768 39 75 C38.76687681 76.44056511 38.53896728 77.88198408 38.31640625 79.32421875 C38.06710628 80.77899035 37.81575544 82.23341178 37.5625 83.6875 C36.42852363 90.33782041 35.39637518 96.99240312 34.47265625 103.67578125 C33.83666016 108.14877857 33.10623568 112.60547095 32.3671875 117.0625 C31.87596527 120.4988845 31.87596527 120.4988845 32 126 C41.57 126 51.14 126 61 126 C61.56847656 121.91753906 62.13695312 117.83507812 62.72265625 113.62890625 C63.19507813 110.35176191 63.67309422 107.07554148 64.15488434 103.79976654 C64.66000696 100.35476799 65.15542472 96.90903348 65.62670898 93.45922852 C66.16941117 89.49008171 66.7574536 85.52877059 67.34765625 81.56640625 C67.50839127 80.34417862 67.66912628 79.12195099 67.83473206 77.86268616 C69.0787892 69.82654217 71.40236649 64.89117464 77 59 C77.77085937 58.11570312 78.54171875 57.23140625 79.3359375 56.3203125 C80.00882812 55.59585938 80.68171875 54.87140625 81.375 54.125 C84.49534748 50.70948452 87.47494136 47.2293586 90.375 43.625 C94.05507009 39.07299693 97.92522884 34.76747752 101.90917969 30.48535156 C105.72108361 26.36401387 109.26782109 22.06349745 112.78515625 17.6875 C115.84597481 13.97349089 119.08459921 10.43481043 122.34765625 6.8984375 C124.10942075 5.29374996 124.10942075 5.29374996 124 4 C119.18071514 3.72598102 114.36604365 3.52758999 109.54077148 3.39575195 C107.90389998 3.34076494 106.2675607 3.26593619 104.63256836 3.17016602 C94.77252451 2.40373982 94.77252451 2.40373982 86.078125 6.24487305 C83.78715798 9.05299218 81.88447217 11.90803766 80 15 C78.94380942 16.30971306 77.86116971 17.59897934 76.7421875 18.85546875 C76.26491211 19.41137695 75.78763672 19.96728516 75.29589844 20.54003906 C74.82700195 21.08370117 74.35810547 21.62736328 73.875 22.1875 C73.11751465 23.07066895 73.11751465 23.07066895 72.34472656 23.97167969 C68.98733879 27.87967045 65.58350045 31.74188046 62.109375 35.546875 C60.79772819 36.96024896 60.79772819 36.96024896 61 39 C60.34 39 59.68 39 59 39 C58.86380249 38.23187988 58.86380249 38.23187988 58.72485352 37.44824219 C57.71135068 34.02506724 56.05382889 30.97667781 54.40234375 27.828125 C54.08881958 27.22274902 53.77529541 26.61737305 53.45227051 25.99365234 C52.28528694 23.74337328 51.11095948 21.49690885 49.9375 19.25 C47.318125 14.2175 44.69875 9.185 42 4 C30.45 4 18.9 4 7 4 Z " fill="#146EBE" transform="translate(170,541)"/>
<path d="M0 0 C9.43941717 -0.39391695 17.49422342 -0.67818496 25.0625 5.5 C28.18354607 9.83058641 27.66418081 14.93008647 27 20 C25.92688619 24.70586793 23.63200636 28.04414945 19.703125 30.93359375 C11.8333897 35.86120324 3.93464568 35.31410864 -5 35 C-4.59425708 27.20693762 -3.71934249 19.5779264 -2.5 11.875 C-2.36940186 11.04572998 -2.23880371 10.21645996 -2.10424805 9.36206055 C-1.57600199 6.11463532 -1.04343687 3.13031062 0 0 Z " fill="#F9FBFD" transform="translate(868,566)"/>
<path d="M0 0 C0.99 0 1.98 0 3 0 C5.12640129 9.35270809 6.93032384 18.75958604 8.6875 28.1875 C8.91397217 29.3938208 9.14044434 30.6001416 9.3737793 31.84301758 C9.58429932 32.98150146 9.79481934 34.11998535 10.01171875 35.29296875 C10.20209717 36.3193042 10.39247559 37.34563965 10.58862305 38.40307617 C11 41 11 41 11 44 C0.11 44 -10.78 44 -22 44 C-16.95141117 33.22967715 -11.81194253 22.51805022 -6.5 11.875 C-5.97180664 10.81410156 -5.44361328 9.75320313 -4.89941406 8.66015625 C-4.40666992 7.67660156 -3.91392578 6.69304688 -3.40625 5.6796875 C-2.96603516 4.80038574 -2.52582031 3.92108398 -2.07226562 3.01513672 C-1 1 -1 1 0 0 Z " fill="#116CBD" transform="translate(350,580)"/>
<path d="M0 0 C1.32 0 2.64 0 4 0 C5.00126555 5.6226082 5.99805834 11.24598407 6.99072266 16.87011719 C7.32901293 18.78309516 7.66852235 20.69585796 8.00927734 22.60839844 C8.49898157 25.35816621 8.98428989 28.1086791 9.46875 30.859375 C9.62186646 31.71368103 9.77498291 32.56798706 9.93273926 33.44818115 C10.07288452 34.24870911 10.21302979 35.04923706 10.35742188 35.87402344 C10.48177612 36.57573669 10.60613037 37.27744995 10.73425293 38.00042725 C11 40 11 40 11 44 C0.44 44 -10.12 44 -21 44 C-18.74968526 37.24905577 -18.74968526 37.24905577 -17.13647461 33.93823242 C-16.77947983 33.20114548 -16.42248505 32.46405853 -16.05467224 31.70463562 C-15.67440384 30.92941055 -15.29413544 30.15418549 -14.90234375 29.35546875 C-14.50801651 28.54507645 -14.11368927 27.73468414 -13.70741272 26.8997345 C-12.87792004 25.19702247 -12.04662369 23.49518806 -11.21362305 21.79418945 C-9.93417217 19.18070237 -8.66099974 16.56422663 -7.38867188 13.94726562 C-6.58109569 12.29148785 -5.77316552 10.63588267 -4.96484375 8.98046875 C-4.58255112 8.19512253 -4.20025848 7.40977631 -3.80638123 6.60063171 C-1.11585264 1.11585264 -1.11585264 1.11585264 0 0 Z " fill="#146EBE" transform="translate(761,580)"/>
<path d="M0 0 C1.96361558 3.4053036 2.62117551 6.63049029 3.2890625 10.48828125 C3.50820312 11.75220703 3.72734375 13.01613281 3.953125 14.31835938 C4.06333984 14.97473389 4.17355469 15.6311084 4.28710938 16.30737305 C4.62240442 18.29709718 4.97059483 20.28425064 5.3203125 22.27148438 C6.36216652 28.37067145 7 33.75981989 7 40 C-1.91 40 -10.82 40 -20 40 C-15.2604137 29.90926788 -10.4770471 19.85086764 -5.5 9.875 C-5.06703613 9.00456055 -4.63407227 8.13412109 -4.18798828 7.23730469 C-3.78563965 6.43454102 -3.38329102 5.63177734 -2.96875 4.8046875 C-2.61232422 4.09296387 -2.25589844 3.38124023 -1.88867188 2.64794922 C-1 1 -1 1 0 0 Z " fill="#F6FAFC" transform="translate(242,430)"/>
<path d="M0 0 C9.43941717 -0.39391695 17.49422342 -0.67818496 25.0625 5.5 C28.18354607 9.83058641 27.66418081 14.93008647 27 20 C25.92688619 24.70586793 23.63200636 28.04414945 19.703125 30.93359375 C11.8333897 35.86120324 3.93464568 35.31410864 -5 35 C-4.59425708 27.20693762 -3.71934249 19.5779264 -2.5 11.875 C-2.36940186 11.04572998 -2.23880371 10.21645996 -2.10424805 9.36206055 C-1.57600199 6.11463532 -1.04343687 3.13031062 0 0 Z M3 4 C2.32936905 7.93683554 1.66417499 11.87457057 1 15.8125 C0.80921875 16.93205078 0.6184375 18.05160156 0.421875 19.20507812 C0.24140625 20.27822266 0.0609375 21.35136719 -0.125 22.45703125 C-0.29257812 23.44678955 -0.46015625 24.43654785 -0.6328125 25.45629883 C-1.07143541 28.06652624 -1.07143541 28.06652624 -1 31 C7.1654552 31.45177723 13.48059767 30.98384111 19.875 25.5625 C23.36092469 21.35888493 24.53011902 18.61510102 24.3828125 12.96484375 C23.71269908 9.52538403 21.70500737 8.04378335 19 6 C15.25475415 4.17798851 12.33398085 3.7750848 8.1875 3.875 C7.21167969 3.89304687 6.23585938 3.91109375 5.23046875 3.9296875 C4.49441406 3.95289063 3.75835938 3.97609375 3 4 Z " fill="#116CBD" transform="translate(868,566)"/>
<path d="M0 0 C2.01836499 3.02754748 2.46501865 4.60847465 3.0703125 8.11328125 C3.24433594 9.11423828 3.41835938 10.11519531 3.59765625 11.14648438 C3.77167969 12.19126953 3.94570313 13.23605469 4.125 14.3125 C4.30675781 15.34568359 4.48851562 16.37886719 4.67578125 17.44335938 C5.53184184 22.46064682 6 26.85676459 6 32 C-1.26 32 -8.52 32 -16 32 C-10.93117855 21.16052028 -5.83346733 10.44772123 0 0 Z " fill="#F6F9FC" transform="translate(350,588)"/>
<path d="M0 0 C2.01836499 3.02754748 2.46501865 4.60847465 3.0703125 8.11328125 C3.24433594 9.11423828 3.41835938 10.11519531 3.59765625 11.14648438 C3.77167969 12.19126953 3.94570313 13.23605469 4.125 14.3125 C4.30675781 15.34568359 4.48851562 16.37886719 4.67578125 17.44335938 C5.53184184 22.46064682 6 26.85676459 6 32 C-0.93 32 -7.86 32 -15 32 C-13.5207999 27.56239971 -12.04322781 23.8503139 -9.9609375 19.7265625 C-9.38085938 18.57285156 -8.80078125 17.41914062 -8.203125 16.23046875 C-7.59383809 15.02860117 -6.98446198 13.82677881 -6.375 12.625 C-5.75744122 11.39992668 -5.14025018 10.1746679 -4.5234375 8.94921875 C-3.01922833 5.96430368 -1.51130878 2.98132497 0 0 Z " fill="#FAFCFD" transform="translate(761,588)"/>
</svg>
